<mxfile host="app.diagrams.net" modified="2024-03-06T14:05:12.890Z" agent="Mozilla/5.0 (X11; Linux x86_64) AppleWebKit/537.36 (KHTML, like Gecko) Chrome/120.0.0.0 Safari/537.36" etag="wmBzOEL0iCvcWvk14Ot6" version="24.0.2" type="github">
  <diagram name="Page-1" id="4ySZxn6eOTBZ9as_K8rB">
    <mxGraphModel dx="1709" dy="1007" grid="1" gridSize="10" guides="1" tooltips="1" connect="1" arrows="1" fold="1" page="1" pageScale="1" pageWidth="850" pageHeight="1100" math="0" shadow="0">
      <root>
        <mxCell id="0" />
        <mxCell id="1" parent="0" />
        <mxCell id="R5q-NAC0qO3H-HwjX98d-1" value="&lt;div style=&quot;font-size: 15px;&quot;&gt;224 x 224 x 3&lt;/div&gt;" style="text;html=1;strokeColor=none;fillColor=none;align=center;verticalAlign=middle;whiteSpace=wrap;rounded=0;fontSize=15;fontStyle=1;strokeWidth=4;" parent="1" vertex="1">
          <mxGeometry x="265.75" y="420" width="120" height="30" as="geometry" />
        </mxCell>
        <mxCell id="R5q-NAC0qO3H-HwjX98d-2" value="&lt;font style=&quot;font-size: 18px;&quot;&gt;Concat&lt;/font&gt;" style="ellipse;whiteSpace=wrap;html=1;strokeWidth=3;fontStyle=1;fontSize=24;" parent="1" vertex="1">
          <mxGeometry x="400" y="405.63" width="70" height="50" as="geometry" />
        </mxCell>
        <mxCell id="R5q-NAC0qO3H-HwjX98d-3" value="&lt;div style=&quot;font-size: 15px;&quot;&gt;224 x 224 x 6&lt;/div&gt;" style="text;html=1;strokeColor=none;fillColor=none;align=center;verticalAlign=middle;whiteSpace=wrap;rounded=0;fontSize=15;fontStyle=1;strokeWidth=4;" parent="1" vertex="1">
          <mxGeometry x="500" y="615.25" width="120" height="30" as="geometry" />
        </mxCell>
        <mxCell id="R5q-NAC0qO3H-HwjX98d-4" value="&lt;div style=&quot;font-size: 15px;&quot;&gt;224 x 224 x 3&lt;/div&gt;" style="text;html=1;strokeColor=none;fillColor=none;align=center;verticalAlign=middle;whiteSpace=wrap;rounded=0;fontSize=15;fontStyle=1;strokeWidth=4;" parent="1" vertex="1">
          <mxGeometry x="265.75" y="788.75" width="120" height="30" as="geometry" />
        </mxCell>
        <mxCell id="R5q-NAC0qO3H-HwjX98d-5" style="edgeStyle=orthogonalEdgeStyle;rounded=0;orthogonalLoop=1;jettySize=auto;html=1;entryX=0.5;entryY=0;entryDx=0;entryDy=0;fontSize=11;strokeWidth=3;endArrow=blockThin;endFill=1;" parent="1" source="R5q-NAC0qO3H-HwjX98d-6" target="R5q-NAC0qO3H-HwjX98d-2" edge="1">
          <mxGeometry relative="1" as="geometry" />
        </mxCell>
        <mxCell id="R5q-NAC0qO3H-HwjX98d-6" value="" style="shape=cube;whiteSpace=wrap;html=1;boundedLbl=1;backgroundOutline=1;darkOpacity=0.05;darkOpacity2=0.1;strokeWidth=4;size=61;fillColor=default;gradientColor=none;" parent="1" vertex="1">
          <mxGeometry x="290" y="100.00000000000001" width="71.5" height="312.5" as="geometry" />
        </mxCell>
        <mxCell id="R5q-NAC0qO3H-HwjX98d-7" style="edgeStyle=orthogonalEdgeStyle;rounded=0;orthogonalLoop=1;jettySize=auto;html=1;entryX=0.5;entryY=1;entryDx=0;entryDy=0;fontSize=11;strokeWidth=3;endArrow=blockThin;endFill=1;" parent="1" source="R5q-NAC0qO3H-HwjX98d-8" target="R5q-NAC0qO3H-HwjX98d-2" edge="1">
          <mxGeometry relative="1" as="geometry" />
        </mxCell>
        <mxCell id="R5q-NAC0qO3H-HwjX98d-8" value="" style="shape=cube;whiteSpace=wrap;html=1;boundedLbl=1;backgroundOutline=1;darkOpacity=0.05;darkOpacity2=0.1;strokeWidth=4;size=61;fillColor=default;gradientColor=none;" parent="1" vertex="1">
          <mxGeometry x="290" y="467" width="71.5" height="312.5" as="geometry" />
        </mxCell>
        <mxCell id="R5q-NAC0qO3H-HwjX98d-9" value="" style="rounded=0;whiteSpace=wrap;html=1;strokeWidth=2;" parent="1" vertex="1">
          <mxGeometry x="122.72" y="625.2499999999999" width="20" height="20" as="geometry" />
        </mxCell>
        <mxCell id="R5q-NAC0qO3H-HwjX98d-10" value="Class Labels Id" style="text;html=1;strokeColor=none;fillColor=none;align=center;verticalAlign=middle;whiteSpace=wrap;rounded=0;fontSize=14;fontStyle=1;strokeWidth=4;" parent="1" vertex="1">
          <mxGeometry x="102.72" y="665.2499999999999" width="60" height="30" as="geometry" />
        </mxCell>
        <mxCell id="R5q-NAC0qO3H-HwjX98d-11" style="edgeStyle=orthogonalEdgeStyle;rounded=0;orthogonalLoop=1;jettySize=auto;html=1;entryX=-0.031;entryY=0.55;entryDx=0;entryDy=0;entryPerimeter=0;strokeWidth=2;endArrow=blockThin;endFill=1;" parent="1" source="R5q-NAC0qO3H-HwjX98d-9" target="R5q-NAC0qO3H-HwjX98d-8" edge="1">
          <mxGeometry relative="1" as="geometry">
            <Array as="points">
              <mxPoint x="220" y="638.62" />
            </Array>
          </mxGeometry>
        </mxCell>
        <mxCell id="R5q-NAC0qO3H-HwjX98d-12" value="&lt;div style=&quot;font-size: 15px;&quot;&gt;112 x 112 x 64&lt;/div&gt;" style="text;html=1;strokeColor=none;fillColor=none;align=center;verticalAlign=middle;whiteSpace=wrap;rounded=0;fontSize=15;fontStyle=1;strokeWidth=4;" parent="1" vertex="1">
          <mxGeometry x="681" y="574.06" width="120" height="30" as="geometry" />
        </mxCell>
        <mxCell id="R5q-NAC0qO3H-HwjX98d-14" value="" style="shape=cube;whiteSpace=wrap;html=1;boundedLbl=1;backgroundOutline=1;darkOpacity=0.05;darkOpacity2=0.1;strokeWidth=4;size=61;fillColor=default;gradientColor=none;" parent="1" vertex="1">
          <mxGeometry x="650" y="349.12" width="90" height="212.25" as="geometry" />
        </mxCell>
        <mxCell id="R5q-NAC0qO3H-HwjX98d-13" style="edgeStyle=orthogonalEdgeStyle;rounded=0;orthogonalLoop=1;jettySize=auto;html=1;exitX=1;exitY=0.5;exitDx=0;exitDy=0;entryX=-0.002;entryY=0.516;entryDx=0;entryDy=0;entryPerimeter=0;fontSize=11;strokeWidth=3;endArrow=blockThin;endFill=1;" parent="1" source="R5q-NAC0qO3H-HwjX98d-2" edge="1">
          <mxGeometry relative="1" as="geometry">
            <mxPoint x="509.84594000000016" y="431.09400000000005" as="targetPoint" />
          </mxGeometry>
        </mxCell>
        <mxCell id="R5q-NAC0qO3H-HwjX98d-15" value="" style="shape=cube;whiteSpace=wrap;html=1;boundedLbl=1;backgroundOutline=1;darkOpacity=0.05;darkOpacity2=0.1;strokeWidth=4;size=61;fillColor=default;gradientColor=none;" parent="1" vertex="1">
          <mxGeometry x="515" y="288" width="80" height="312.5" as="geometry" />
        </mxCell>
        <mxCell id="R5q-NAC0qO3H-HwjX98d-16" value="" style="shape=cube;whiteSpace=wrap;html=1;boundedLbl=1;backgroundOutline=1;darkOpacity=0.05;darkOpacity2=0.1;strokeWidth=4;size=58;fillColor=default;gradientColor=none;" parent="1" vertex="1">
          <mxGeometry x="789.75" y="375.31000000000006" width="90.25" height="157.62" as="geometry" />
        </mxCell>
        <mxCell id="R5q-NAC0qO3H-HwjX98d-17" value="&lt;div style=&quot;font-size: 15px;&quot;&gt;56 x 56 x 64&lt;/div&gt;" style="text;html=1;strokeColor=none;fillColor=none;align=center;verticalAlign=middle;whiteSpace=wrap;rounded=0;fontSize=15;fontStyle=1;strokeWidth=4;" parent="1" vertex="1">
          <mxGeometry x="786" y="557.5" width="120" height="30" as="geometry" />
        </mxCell>
        <mxCell id="R5q-NAC0qO3H-HwjX98d-18" value="&lt;div style=&quot;font-size: 15px;&quot;&gt;28 x 28 x 128&lt;/div&gt;" style="text;html=1;strokeColor=none;fillColor=none;align=center;verticalAlign=middle;whiteSpace=wrap;rounded=0;fontSize=15;fontStyle=1;strokeWidth=4;" parent="1" vertex="1">
          <mxGeometry x="927" y="512.83" width="120" height="30" as="geometry" />
        </mxCell>
        <mxCell id="R5q-NAC0qO3H-HwjX98d-19" value="" style="shape=cube;whiteSpace=wrap;html=1;boundedLbl=1;backgroundOutline=1;darkOpacity=0.05;darkOpacity2=0.1;strokeWidth=4;size=36;fillColor=default;gradientColor=none;" parent="1" vertex="1">
          <mxGeometry x="933" y="409.5" width="100" height="96.5" as="geometry" />
        </mxCell>
        <mxCell id="R5q-NAC0qO3H-HwjX98d-20" value="&lt;div style=&quot;font-size: 15px;&quot;&gt;14 x 14 x 128&lt;/div&gt;" style="text;html=1;strokeColor=none;fillColor=none;align=center;verticalAlign=middle;whiteSpace=wrap;rounded=0;fontSize=15;fontStyle=1;strokeWidth=4;" parent="1" vertex="1">
          <mxGeometry x="1095" y="498.69" width="110" height="30" as="geometry" />
        </mxCell>
        <mxCell id="R5q-NAC0qO3H-HwjX98d-46" style="edgeStyle=orthogonalEdgeStyle;rounded=0;orthogonalLoop=1;jettySize=auto;html=1;entryX=0;entryY=0.5;entryDx=0;entryDy=0;strokeWidth=3;endArrow=blockThin;endFill=1;" parent="1" source="R5q-NAC0qO3H-HwjX98d-21" target="R5q-NAC0qO3H-HwjX98d-22" edge="1">
          <mxGeometry relative="1" as="geometry" />
        </mxCell>
        <mxCell id="R5q-NAC0qO3H-HwjX98d-21" value="" style="shape=cube;whiteSpace=wrap;html=1;boundedLbl=1;backgroundOutline=1;darkOpacity=0.05;darkOpacity2=0.1;strokeWidth=4;size=20;fillColor=default;gradientColor=none;" parent="1" vertex="1">
          <mxGeometry x="1088" y="424" width="87.5" height="60" as="geometry" />
        </mxCell>
        <mxCell id="R5q-NAC0qO3H-HwjX98d-51" style="edgeStyle=orthogonalEdgeStyle;rounded=0;orthogonalLoop=1;jettySize=auto;html=1;entryX=0;entryY=0.5;entryDx=0;entryDy=0;fontSize=12;strokeWidth=3;endArrow=blockThin;endFill=1;" parent="1" source="R5q-NAC0qO3H-HwjX98d-22" edge="1">
          <mxGeometry relative="1" as="geometry">
            <mxPoint x="1279" y="453.99999999999994" as="targetPoint" />
          </mxGeometry>
        </mxCell>
        <mxCell id="R5q-NAC0qO3H-HwjX98d-22" value="" style="rounded=0;whiteSpace=wrap;html=1;strokeWidth=4;fillStyle=dots;fillColor=#000000;" parent="1" vertex="1">
          <mxGeometry x="1221" y="354" width="20" height="200" as="geometry" />
        </mxCell>
        <mxCell id="R5q-NAC0qO3H-HwjX98d-25" style="edgeStyle=orthogonalEdgeStyle;rounded=0;orthogonalLoop=1;jettySize=auto;html=1;entryX=-0.048;entryY=0.446;entryDx=0;entryDy=0;entryPerimeter=0;strokeWidth=2;endArrow=blockThin;endFill=1;" parent="1" edge="1">
          <mxGeometry relative="1" as="geometry">
            <mxPoint x="162.72000000000003" y="239" as="sourcePoint" />
            <mxPoint x="286.568" y="238.375" as="targetPoint" />
          </mxGeometry>
        </mxCell>
        <mxCell id="R5q-NAC0qO3H-HwjX98d-26" value="Resize" style="text;html=1;align=center;verticalAlign=middle;whiteSpace=wrap;rounded=0;fontStyle=1;fontSize=18;" parent="1" vertex="1">
          <mxGeometry x="190" y="200" width="60" height="30" as="geometry" />
        </mxCell>
        <mxCell id="R5q-NAC0qO3H-HwjX98d-29" value="Embedding" style="text;html=1;align=center;verticalAlign=middle;whiteSpace=wrap;rounded=0;fontStyle=1;fontSize=18;" parent="1" vertex="1">
          <mxGeometry x="180" y="588.75" width="60" height="30" as="geometry" />
        </mxCell>
        <mxCell id="R5q-NAC0qO3H-HwjX98d-30" value="Conv2D" style="text;html=1;align=center;verticalAlign=middle;whiteSpace=wrap;rounded=0;fontStyle=1;fontSize=18;" parent="1" vertex="1">
          <mxGeometry x="590" y="221" width="60" height="30" as="geometry" />
        </mxCell>
        <mxCell id="R5q-NAC0qO3H-HwjX98d-31" value="stride = 2" style="text;html=1;align=center;verticalAlign=middle;whiteSpace=wrap;rounded=0;fontSize=14;fontStyle=2" parent="1" vertex="1">
          <mxGeometry x="590" y="241.75" width="60" height="30" as="geometry" />
        </mxCell>
        <mxCell id="R5q-NAC0qO3H-HwjX98d-32" value="Conv2D" style="text;html=1;align=center;verticalAlign=middle;whiteSpace=wrap;rounded=0;fontStyle=1;fontSize=18;" parent="1" vertex="1">
          <mxGeometry x="735" y="221" width="60" height="30" as="geometry" />
        </mxCell>
        <mxCell id="R5q-NAC0qO3H-HwjX98d-33" value="stride = 2" style="text;html=1;align=center;verticalAlign=middle;whiteSpace=wrap;rounded=0;fontSize=14;fontStyle=2" parent="1" vertex="1">
          <mxGeometry x="735" y="241.75" width="60" height="30" as="geometry" />
        </mxCell>
        <mxCell id="R5q-NAC0qO3H-HwjX98d-41" value="Flatten" style="text;html=1;align=center;verticalAlign=middle;whiteSpace=wrap;rounded=0;fontStyle=1;fontSize=18;" parent="1" vertex="1">
          <mxGeometry x="1201" y="582.75" width="60" height="30" as="geometry" />
        </mxCell>
        <mxCell id="R5q-NAC0qO3H-HwjX98d-43" value="&lt;div style=&quot;font-size: 15px;&quot;&gt;&lt;span style=&quot;background-color: rgb(255, 255, 255); color: rgb(33, 33, 33); font-family: monospace; font-size: 14px; text-align: start; white-space: pre;&quot;&gt;6272&lt;/span&gt;&amp;nbsp;x 1&lt;/div&gt;" style="text;html=1;strokeColor=none;fillColor=none;align=center;verticalAlign=middle;whiteSpace=wrap;rounded=0;fontSize=15;fontStyle=1;strokeWidth=4;" parent="1" vertex="1">
          <mxGeometry x="1175.5" y="558.75" width="110" height="30" as="geometry" />
        </mxCell>
        <mxCell id="R5q-NAC0qO3H-HwjX98d-48" value="" style="rounded=0;whiteSpace=wrap;html=1;strokeWidth=4;fillStyle=cross-hatch;fillColor=#000000;" parent="1" vertex="1">
          <mxGeometry x="1283" y="426" width="20" height="50" as="geometry" />
        </mxCell>
        <mxCell id="R5q-NAC0qO3H-HwjX98d-53" value="FCC" style="text;html=1;align=center;verticalAlign=middle;whiteSpace=wrap;rounded=0;fontStyle=1;fontSize=18;" parent="1" vertex="1">
          <mxGeometry x="1263" y="491.5199999999999" width="60" height="30" as="geometry" />
        </mxCell>
        <mxCell id="R5q-NAC0qO3H-HwjX98d-56" value="sigmoid" style="text;html=1;align=center;verticalAlign=middle;whiteSpace=wrap;rounded=0;fontSize=15;fontStyle=2" parent="1" vertex="1">
          <mxGeometry x="1263" y="516.19" width="60" height="30" as="geometry" />
        </mxCell>
        <mxCell id="R5q-NAC0qO3H-HwjX98d-60" style="edgeStyle=orthogonalEdgeStyle;rounded=0;orthogonalLoop=1;jettySize=auto;html=1;strokeWidth=3;dashed=1;dashPattern=1 1;" parent="1" edge="1">
          <mxGeometry relative="1" as="geometry">
            <mxPoint x="1293" y="561.19" as="targetPoint" />
            <mxPoint x="1293" y="612.75" as="sourcePoint" />
          </mxGeometry>
        </mxCell>
        <mxCell id="R5q-NAC0qO3H-HwjX98d-57" value="" style="rounded=0;whiteSpace=wrap;html=1;strokeWidth=4;fillStyle=solid;fillColor=#647687;fontColor=#ffffff;strokeColor=#000000;" parent="1" vertex="1">
          <mxGeometry x="1283" y="615.25" width="20" height="75.25" as="geometry" />
        </mxCell>
        <mxCell id="R5q-NAC0qO3H-HwjX98d-58" value="FCC" style="text;html=1;align=center;verticalAlign=middle;whiteSpace=wrap;rounded=0;fontStyle=1;fontSize=18;" parent="1" vertex="1">
          <mxGeometry x="1263" y="709.9999999999999" width="60" height="30" as="geometry" />
        </mxCell>
        <mxCell id="R5q-NAC0qO3H-HwjX98d-59" value="softmax" style="text;html=1;align=center;verticalAlign=middle;whiteSpace=wrap;rounded=0;fontSize=15;fontStyle=2" parent="1" vertex="1">
          <mxGeometry x="1263" y="734.67" width="60" height="30" as="geometry" />
        </mxCell>
        <mxCell id="R5q-NAC0qO3H-HwjX98d-61" value="" style="shape=image;verticalLabelPosition=bottom;labelBackgroundColor=default;verticalAlign=top;aspect=fixed;imageAspect=0;image=data:image/png,iVBORw0KGgoAAAANSUhEUgAAAMgAAADICAYAAACtWK6eAAAACXBIWXMAAA7EAAAOxAGVKw4bAAAgAElEQVR4nFy92ZJdS3Km97lHrL13ZgI4AE5VscVq6+GCpGjWN5LpZVh8GT5S61Ukk0ltbNHUbSS7ijXgHCRyD2utCNeFu0csEOQpDLmHWBE+/P77EPKf//f/bCDUCr0LKoKoYgZYRwTMDBEFwEwAAwA1MEGQ+BmI+M/9PYz3iChmRu8NA5aqrOtO78rludD3Dv5xCAaiGB0RRUVRBUFYH3e0VEQLrRuYIRgi4qvqgOQ6GgDdQFVj2b526x3RgmHoWLM/gy/Ev78uBTB6a4gorTVQRRFA6HQk/s96BxFfixkGxEfHXhjg+4AYormc4vsFY21acr8NEMxafK4/n0qeBfg3+WeDAB3J90rxTbH8dPEzpaNa8oERgfv9wbptvLy8Q9W431eWulCKjHXkmiTeK2L0HmtE4+xgWRa29Q6iFC3xmikf879cl2I0l5XcB8E/MeTK99MPWBBI2QSM4q/pm+93KX6MbEA97E8PeSn03slTkSmsIesuD1XFD6R1ENNYrwu3iNANRAuCb4QLVByLzQ8SAVWhm4D1EMwdo6AoZg1EUM3Hz4Nt7BsupAqSDyHmwm5GZ8c6iApaKibQ++7rxTDzTTPplKJ0lLZ3UKGEAMeSEAkB0YKJsj5uaCmUeMbcSFF/rYryeOwghfOpxOcIRh6Uq4mZv9uVTUIUWxwSYBrf313A1ZXCBd/GboAgykEgQ/lN3GhYgw49vsYOBsEFxNciGkpPRznox9BWofWWooYILKcTtVaK+j+czycEVzA3crkeHYplIaiSa1VlXxsmjefnJ9re2dsDkWUq10G5U95ULIS30M1CDnJP4k+Wv7sBHb8DYmA0l1stdCPWqCCCiYA1VHLfbSiF73WcgQmi8a3WqVoKhtDDaonadw+vonlO0yOkzRwWLQTU0vISglPjd5u2QtKKwmlZ6B2wNqyt0X1zUqJji7p1tBdXBnMlGpuU22hxYGaI5GZobJILazdFXNsQGrX4M1g3tIi/FuhmFIHWGvebK9FyegIVzEKB6fPQYj8Q2PcdRdCiYeHS0ueh7wjKtjVMjGVRLITV91PdOPUevxuGUMU9vIWVxtJzdqyncQsPHOeiaJyXDa82LDBTicyUWiq9Ar1j3YXU4hm/t/b57Pk5OvbCDekK+8L9YVgDl7HpHfysAyEMzy6IVjeEKGIpsG5UhAISXj5Xbhqy1XBfEyhiQAGJfzfoPWTPYi/E0YrkPxuqSpceiMPXWAVFilGkBAzq9GmWDoKaX+4uvKeVFMJDxMtIU+3W1Lofga+5h9amJQoDYDWErCPH14QQoBLeAn9gwaFDrNNdojjsCI+iRR3OdQKuuIa78KSFd6vZeyi0ClgIYBuPgdFprdPbObQwNtjcawr6HSTEfIeUMiygjIML4TBo+0apdVh4Eei7C5IWCQ8G9/WO6gLV1yeimNgQbzcYE0Ih3R8xlExFD7YYOobG2s16vM69mRuH5s+IK6ojiB3J7xR1yGQNwiKn8cTgdD4jItyud3oX3r2/sO8bKmV6R2lzNSb03lCLMzOlFBleJFEFMIxOKg4iriiiA86mnLmBSc89YdSEpDKNgNjhs135zYSab07LZ93hharMTU2vJoJoaNj4CqP3HouM19ABZe8dulFqgT4tmMTG9HTb4viajG/i0ATFpLuQqy/cpIYiOeZFwpIJ2NisI1Tz9fRcf/ozaxjFPZiYQ7PdN7MUwfpOB6qeeHq6pJ563HNwqTa8EbGpUErg6QNAAI+jXD/d2tdSKKXGkbl/WZZKa9Nqd4xa1T2WmSuGlIB1MCBPHrrjR9+77pCjxdoT1ol4XJZrT0UYRkocBeiADN0/XcD2jlmj1kIXA/WzwArINuJNxKhF/Z/FKKpx1hpwKiB7N8A9jCjQzT2GpNFNnwMZqw2PFYIr6p7JoVkHM7r4ng2oGs8nackl0Y6vZduNLp0axjYhZe1dIgB2iyYqFF1CG3PDoVTBemhuwBALa+wBUgQ8h4C+721gY3+Q8DzWMFGk21iIdVcqjys1lLL5hqbVTy8i05W6NcIfXMK64hZRpLg1tQyjcYuq4brM/y4Y3eB2uwHC09NlxF/ddk6nk2+6BfSI5xvBPSmocQgiQBmQw0hLF2dqDovKUhFRX4N5XCHWwxh4PCcm1OU0jUd+Xm8hWPEdYUjcIrogpMUMGxpq2GOvS+x3WtUkZJIQcONEGhxzCLP1HoauYBQKBbNGp4FVEKG1FenK+XLxb+yJQpTt8UBLpTj3ERDekOqwWrWGHLkBjeAiXGybHrg3KBUChgZ+9z3RiDsllA2NNVjEZhoyLMMg7ttG3wu9+E7lOVW3TB1K5Xy5OLzKNYFbh2Blem8DO7oAH9gMlYPr8+1YlpP/W+8DCiSGVmwwVkd2xi1xozcX/lr9wK07uybDojkLVQiWqTPWRHiwGcQ5hh/xSlrciA80NnffdleE84lSFWmd1nsEeImd56E5OaCxV34QGW9oWGmRPIzQ8WSlWtqenjs9DGXPOCq+LxGvmXvqhGqa2MwSAGtA3vgoyWg+YsSeQhRnyDw7FQlvbOwtlSz3OmJRc3YKjNYbvUEfkEkjRrDwVAxSJ+MwdyCh2EGWuIPodIszlogRRMbzJLxKCCs4pFKghcyVEpgh0cPYNIbhJJ45jWrCVCjfQW0jjXX3KNqFJ7/c8aCEllm46gzKVNOVBawJOGRIuMgeiiTx33SVbpV3hAyeDWiB5X0LLOCKlAOjYN3XYTtJZSbD5ErsP2tboxQNYiOsrQV1Ta6BgB6u+G4AHFLWpQT9K/RmbsExelKhTrO5Z7M8wONnW2r4sMzxI3rrlFJo1ogdJ5mZXK2mQqQ3xMafR/xCQt2AAhlzdB0xSw9BM4uYKj1sLmaosdFtp8gJUNoegiad46tHYBzQR7SGqDncso6zycPK6YTeKQexV2U5hVx5rJUeWeikuFqyZbgtahFLiFSHywJalqC6LZDAlCHfp/S4SVF7EN56zyNyo2AWaEMRabGfwd4KVLNJg3ZpB6sYkEYmhhtxiZWIN9xyi7jiuJJo4MhgTywPi3joePgI0lrzz9fh8VIx1DfPiCCxOG3c0yL45l6vD+qy8PxU2VV4er5wvz/Yt0atSmt9QMDWO0UrmZNxC+afQ/H3Onsj9NiXhJqJy8GCDAgFkKQ9/dBleLG0fkZrRtu2gHZh8YPu/n5fgiEb6q0HLzPjEFeMYH/C44sVRHt4+hTkDHIjF5KSERbfwauTHeu+sj52nl+eOHIzQ5WTSseg7W611YNq9+zpmQNmMiGee/hG737mUiQ8m8drafSqMpXKnJ3KfZ5BuEJvTuNqwDNJqUpD1sOw1NzusdcaxnzknfJZ1SL/Z2404xN1PoQEhs2gZ9KsKr4Z45f1Ee1b767Vzdj3jE/CUVmj284wfQkl8ndx9kfELYArurtChxOd3o22d1o3wqnObbDG4/6GtY3L8xNSCo+tsz42WnMKUQI6OPZuDAsqw8fQsbBSJeBBiw1sYbH9sdvuQShSU5td3nob7p/x+h7K6d+pJaGZUdQjot7Su6U9TyLjmLQckupndLCaQ+jFHN6kcEoSFanA0005xxAxXgpxJmMDd6cVdUXKM5OhjP57D89f5gbFjo6kizjUZBjRMgxOGigBtnXlftsGlLcWkFh8L4oWikJRQUsJhZxxayZfrft3mSV8SsWeSdgBQMXZvDT+NtZPrMtRlHsQ8wSUB4cpVAemREjaA9FgeUgr5EHS47FiHerTeRx0Ioi0iRaZ+XFevVEUd9m9OQTZIr8hQimOY++3K6WcOV9OzlVHYrho4d3LE1qE6+3O/XZ376WeL+nNs8XuQj2bbmlKMoAVgIJ1Y7cWkCJjqYHm3VDoIR4IMyshkC7QUzBAKEVZTpVt62g9RZAvSFHujzvWhVKcOs58RsZ4DmnSsGicY+bvLYQzczY7zsw6pNXigMW673czG/BNbT5S5lmsd+qyUEpFVdhaWPphE4POTdgTTNTI8FgPw5HW3FfZzasUUjmyGiCfl9zrvsUWL+HgGirVPWh6ZIFtc4VYFqG1gFWlYAOhNJLytz6NibOhFnAzYisCrkul245Sp6TaVNCajEpCG6PHB6Trm1jeD6l4llpAC5GnFZalRLBUoPmGqUYAnWwTCuxkviWtpbT8DocTboA9/tBRorIjcgrX6g+rqlyeX+itsT02SqnUBUpd2PeH40gEY0fC2nXbyVxFCr7Z0Fi6uFX3HMEsGfFyF2VvG506YpcMeAd7OKyzQ8vWPWcgI9nhu11LoScpR1i8oB2dOCgDfgEBYQ3VSi2OyxmsYnFOoocV1RD8YG9EhmiHY0gmzmNLs4y3hNYys09482ADMWaAK05394aUOh3IYPFcKNUasGOm9L6HgUx4rnRrNJTT+ULPag4tFNx7Tb/k8ne/XUEqdXnyf+0dShA3I4/HVEARhPBaHCyz6Mir2QFKz30J70mnunNQJGDIqBUi+f3JQnSXOPa2RaBYwxrD6XRm23a2fT+Ukwwc50IkGpo6hTPZAsQhjB9ismaenzhH4sl6C97cf+2RkXZ2rIO6ILtQ1AAcO4MPtxJ05UE/YMRIkmKkESeEIvtK3XWoVmYAGLS0zANxPXN6cd870p3daua/a3jjUheqOcDrFvFRqZGQzhgthFpdGdf7CuzUpaAC++7UblmEUqrXcEWZhCt3jyU1zFzIMyGJZH7dFdcTf+lR/exseCENhXX8knFJYGL/HMHh5CG3MOj1o9eQBDbVLbsZFs/X2kopC5PSzto2JwZqLYFcQFSpNc4lvNYsGSH+baK9YQglDI1UMqEoKoPEEGEE6AbUHpvmZQMlPty3IBUiZT0Fo5Qytcw6vbuleTzugHAJ/tsC2qQGZ1zjQTjQXWB6fGdauFQsX3LjdL5gvY3AOXGaKgdP5ORAk+TqJGNRvCLLxiHNBB4j+BQVL9cIgWkBPyLjMdbkyhCbmAdyYKxcWDx4LMk85DNZUuQRSOfrLVku+24dR6UTvGBy33baXjidFrbHGgq6UDQC8REvZAVBB5bY5APS7rF2CSiXFQRYsNgBoARG4jbhnpmXpdBc4M2hucPQiCHD48y9i63taTBtPJeHCUKJ+rGUzmQgMx48P53Jmjczj/v21ainKFQ0PIEc8Nc9gkVs0yJsmBHf8OokU5meY+hUgFsSSGXQ55o+alckoE9oZS0lIIhrcgZTtRaWZSFrX8w2jObMRGyEP2DUXmkP3Do0MLC8Qz4VCdzumfDB5IBbtO5UtFfqzlyM/wrYYzKK3zSCr1FHksIEM9YKP7LvO9bmfpjZqAbwhfbJhAyhNPqx7EM0ym6D2pWEO74u6558VFVqSSGW+D4/hrZvbOsKKLUWai1uoOIrSln8vXn0dhQypQdMTNbRnzX3SMIwutdUUjBtsHmqHhQPYkf7OKdR9Y3LgEYMk/B67I20sbeSLFIQMf6DVMDqdXLhyhKJOInTnfE0oAWSME0iKwim3Posd0qDYONZRz2aGL1P1pCBAo6eVtCiSi2FWt2N5uHYwZqnZQG3fN1m2TrByZt1lmWh1jryBl6nlIFaHELQetZ9I3taMhKQz8xoKot/l4WxllDIzv1+43a7kXifOOgZD3S+K0XBY6ZpI6aCHD2BYCy1BvMUh5kQwYKKDKybwmaRFxmBezzLkEOI/BKoeK5FtWCZ+RaJzzUkSrLTa+Uhn06V5+cnllo9MyyFUv2/Wa48cxiG0fbdY5Ojd8mzlSH1LnAyQKafUzgQUY1yEo3/iMMh1mleAYywrjuP+z0UPJQgYO1xvyeFTniveNKw8i7Mh3igQ2+7txvEwkpRT1xG3JgKOJ5CDljpwA4JxGe3kLGk/BNmlogHcQUp6mURqm75/aCLb4bv0AxeQlxGXVNUfuZW+a4dvULSxgfh6t1jhhAwiw13uBHlD0kKhLX5foMlPEJm1ongWL5bS57jkIMUBpvKODBrYPZ8xlIV35YeyhYVACE0GgIhUXmbtUbJhosEI9cMIqgvku58xkF+fpPpmfXr6vFF8RJ0zDAtlFojBnHrWWvECqmww7IQxkkj5xJe0NLQ+Z9FgkpvkQxGMLxc3PCksLXDPmVVgCWFmpUKsG0bbQ8S5HC2o9xIPLcxPys9fipgJB7DlCHtO/JjWc4eh8Tntg5bawcjGyB+QLj0QGVIT66d1BmRqOHz0h6jH55NqPfHA1Fh3zpPT2dU2+FDckN1eJT8EkmePAQ0eMQQ3nI4DKGxIxkkmmu+yILQMW1hfcPyW8ckm5iyZkimAhokgeC1Pj1c8DBHbhEiYBcix9Eg8xepVCN0sIQf0/b2Fkp38ArHfQCC+YFBa8fvPZqxEtuKudVz2rHHZzs+T4A7g02HT707NNMgDHrDSQrpFCmDklX1vg4z76nwI5lrrDWFPYzaIGQOMIuwmsIQjIRaEmdtmWRgCntoYTyBVzbUS5AY4l5ddbJ5Ihl/xGcf6svmr7T4zL2VWXCZjVOaL+gd1YWiweyN906o6ZDRWzmG8vqKh0xG/D6Mab5fH/cHbdvp7THwtR9Wn+xMFOlNhchjhYwLPFkI62MfViO/zXpsqBRECloK27axbjtO+xmoeXFcvO24lpGAIz2TZ8jzYFqWaotnQzUeUMJjDIjHjmRTTfDhY1NS6UMp9+aJPlemXMuxQreMJp/E/S4MocB0avVYTePf0lpmLHoMCPOPvXsSTtUib2MTtpnDtObdbc74QMQLEVaHR3Pf1yMBO61pz5wFaRQcCpeiw1DVEp7woCAzoRxVFoEssgdIEEopI9fU24Sh3fBiwHZQgJQzl/IwMqmAGknACTF7b+ytDRiaAlirs6L7Phkp9+bqhii8kUoa/ky8Dk0IPU8YbpPrALSUwuly5vJ0AfDsr00LMgO6NgUpShq89MQPwQ+q0dqWa/cvk6mpDh/cle/byraucUg6BDVLoZNrmEbK0AJanO0QcVhgzbxyFXeT89DssJlxwKOnxF83ICCelc/aKhcS9YLFUbLhsC7EjL1Ftl0OvQjx01IKmUD0Tc8ixiiyK3o45AOWDy/kMC0SnaN8w9eqCCae5U1ifnx3QoT4vxSCUaJiFvsfYHgYukans+07uem+TobgjhjsaH1tUqu9d/+vZbNV1lYl1WvoMcAnPYLDND0otm9IQGEDQSlKJCfbhMxRrr9tDx6Phz9iN7bNqziOZVM9FcA6R29vKQsp21FfRpAn+vR8oi7qPPrAZl6jI1ka4JrkB2W+MQxX54cJboVOpxMJzdL6HqnbEHWW08L5VOcBZJJrIsU4FMePie0f9w0zDrVbeWidtq9Y279z2lk24pY/MsQjYUQIX+YEplUpUZez7+1Q3D8AJtb3g6AFtBrKWALTEgKS7+1efkNa5QlBMgHnfy9sW2fvHZXqMURYdMvvl2xyyu+M5zJNcD2gkBygXNbI2dCZ7OBMuRSvHdsNoQz4OLZa3Ddl3OjPFN8RAj4Ik1RUOstSBlxUTY/rBMM8n4DZMokdNNcd3pEMyGP3zen0Ur1ItVtn3x+ugOoGqm0bbXcEk+UuknVxI1nqhiNF0M9UqKIeTHZrKCVqa3A+OR88hNOxbOC8jFZFIuniijVimNiiEaokkxQUYq3V+0MOARYGvas3C5ICEW7XYI/21yLKctaZGA2momhBi0TZdHiwLNQLAcym/2MuhIBto1/dQGqlrw8ej43yfHaI2BneZDQxpdBl81cozODlDy3MQ50Hl+9VCxksEu/p3di3DTNlq2vorMV3E8ZkDw8RJUGp3kPpY99IiJWKFAG3QFYkp5cp1asT1nWjtY3ydHEDFcLjz1iiWa07preEsgE38yzz3yznGhh9FKb6avdu4wyzilpCK9xgRCFtQDU3jM6AJq9rZt4vE99XtCDVvASlT689XBd+1hkPxskjUkO2Ew34zzX7LrJt1BcVVsDisQ8Z7BEfhNVvLV2Z0fru/RNhUf09s1xlgKXIa/QG2S46MppRiDaqZA/YtAgstYIwm3Ak68WEsngD0Wj6IwW4jHUMa5VMRUAc6Ih4Vvt+e7DvnVoK53MZMRBDAdpU/CGAHou0FnGK5L6lbqbQhK8SxucaxQX94PqWZeG0eP0S3WGX59OSHtXwNsGyBX3te7+5AHV/nhGhpCFIax/J2R4Qyg17xHGBGAZ6M40axe4CFRud/nGwkdN3u6IKJMIY8VCEIVlgWDJGTJhlCR6noeWwjm54W0QwfSOuiPdoKQNi9d6oizN/o6X4kKSlH2n/VLNB1KOtpWVVWt+jycWZpHypDi8QkiczBB71W2QsMORgoqXh0qdr7pZVuTbgWnLRk9qDBHEiUOqJp3cvXtS4J3ZPdQdMWO+rU435kEEZe2Arh4POhSYxkMIqtH1j31bvEalLGIQQhVhcPxiCKRSRfY8WTU20MxFM/PvR02Tm+WB9RTmfT5zOJ2pZIvlm3N9u7OsW657Q0Zj1T8nYJNTyauG0xBHP2KR5LX6W3rt1Q6tD5e9iGUn4I3EeNpU+H1/co1l35jCjTzlAK49bvdA+Cxl77Bs2FW6Ij+X+RYLRMoGdouNKsW07bZdhMMUyJzKhZAqnK05WUBgMDzx70qevoQ/rk09qWXsumeEsHliGSzHz+i0ESi1RUCgBsXS4bse7Lc48qkGjr0LH9x28hMGsWU4tjox68wkjGJQCo7EoE4wHjUwa0z0RjHEw6MjJiNrEoSauNM0oIpwuJ0pxpmzi/PiOURJjoVhpc7LHxHND9O7uXgqJ8SX20ohq473PlUuHAq1tEfBuw/oTii6ShXXiFazx7yo+cKCUihbCgE3jNBusjuTu94bOhUWyaPvgXWcFhZMPuccJXRJZyPxk9WLL/FxPhiZRISOnOfYx1thaZ/eKxUkyRSx4jADzU218tiARS6TC2fD20ydYlNuUopT0liGHM7noMigh61pq1F9ZBE1FR3ulSKV1Y93aOMiZ6Y1eEEsvktqZkMOGUIbWMaZU5MMjQWvOA52Ub9aCGajGA0dgWyulCjn7SUZ2rnM6naItNJU7FbdCBHklSjZqBHE2pngY0DidanROynfPkr8S3vn6A0oM55wwNGKJto29EVG2vXlcUyqlJgniAbH08C7ie+pUqe+F1sLLy3uWk9eViblZkyjxaP4IcX4h/AeY6f9viffIxOpoBBOndkuQAa1P5sottz/f8KBDNYZZHf8qMj0FAZlGGnmwadHTYbGfAr3vtLaTjN4xFyejlcAV1yK1gHWKesyRDKxGTOpxXB8t1QPt5J4PD/g9UydRJtMtWtYSgwqJpbztNqSU3vbwTjHgQWeAmplRHS7XgkG1ASsE0CjEm0HkrPpkuFhwp6axfToONqFK78LtutJa5gkORxRBtMVjtODNyZX2jJeEde1su8/O8mmSBIyQqNFhritgz4h30hhEjqanS5biDW8krDjQngkL+ga2IuIBpxMfx7bkQm/ZYqrprmktjIYRNOoU0NY6P335wrdvV6AejNQ0XOnB0jpZNw+c00MIo5CwjIY5S30KWDI9t0zZjXPKk04P5DBQRsNW7GEYEBHB1EJBPFZbloWlVma7dsAuIXCWxUMHwgjI59NpjH1bxz76F7mX99IohozN9Vm4b0c+6RDduzrho21P6tPpNq/ujY2U7qUNNUY3ZpIp2JPwR6GdOT0xF5hD03zwAvioUKfZxCthj8I20toB01LpEuOai3lrG4/7FevZbxIBI+b1XT0ws3lvtcRGiXTUDBXfzOvtxv32iE3WgBveK9+i1uqYMe5tD8H10nJkVqpKFlEO/OvrLbV68aYIxLCFZTlxPl/oLQkO+W4f9r2xb+swRukcrXXatn1fSmNzf9q20tvGrDuzgEuRKc7i06Av3RbGQmM+1v22su+dsmS1diqtx1WzqdSmxx25HrzHIs+CQAOWxsTyj6FEQQ4VHWNWM2/UoxBxDv1z5muwfUk/B6Pao6y/LDVQTkLxhYydZiB/2BNSVuLfYkBfFjD6ALms1ZHuwZKnosZkChGHJHN0y8EvGK4o+AFokanlZhGMCt2U+31lvT9iKF1PMwLkuJnA23I81KP79uTY+bRwOV+Q7IcWfJKFKF5PktIWgqwyZlmJHoaEScKZQ04AA2tIzmgKaxdN6PF3IYsl/bDn/OIBH4JWbK2Px/QhBQFBlPDQkRiVKYylegGeqMSUDYdhWrJCVkfyUCJOq6fCD58+8vLuKZQ0DFVAXM+DpSBIqpcrE7OKd1s9eTtmKZP748WpDMiW/5sIPn6mkyLNeQWuxNlGEexRBvrm9X+lLo4jsqjS0rL7Osc83lCQjMVcaRUvySmcT2cG+2XuoT3BmJMwh+rG9qQCegyd8NG7UDfW24PqrisL8iKQGvGC48LhlpHIdKdGyuErHbMf1BQVeKyN/ljZ931YnezOm4Pg8O+ULNQL7SC4fikgjjHPlxOyNdbHxvnyveUJ8+F1O0DOeHJTUONQO7VUnp4uuJfLqmRIgmAoTrc0iBHca1gsI2Oo9Kz5Kzdd1Fjvd2pdvI86IJnruhsC95RRpxW7mH0dbd+53zfOpxNak26V8S1kwq87kXB5urggW8aLEX7rIeNjx7gkgv1ky8NKd/N8ReZx0miMQRBhIDx+sIPx8Ofo5HSckFLJWiif6oJGDJEWsIsPBo/K7+xsNGyMxBIq67oiQD2dsNbQ4t2Vftb90FIRz1bw+WrdED3hQ+1GzQaDko4SJTM/M9+tWZhbJQ84GI3MIEq4ZN8g17JJcypDNr6DSXs0uPiXO+5zT/J0yd5rD4C2zTnq01LdRWY8F5BHcmJfJI9676zrI9pe9/jcOvoC0vsZfdRNesBWjvPmIsbw7j0DrLdQpnQRATf7FH7JyeH0GKkzYxRDptxGptxx80IpPoBvoM48fPHqVVWjtRnfjLljoYCl4AKePS3iMY2U4jGaQmvQtkZXf02JTPxoWvoOylowTHooGw/Dp9XLjaSkKoenSZIjmDCbI9levf4AACAASURBVEOPxtUhkY25trMXg4i3/HC7CSXgUlYD9G7U4MQzGM8RtBZNV23vPo40EL5I4XFf2bvx9LyQQ+4IBqsWD9Ift5XT+cyyOHTOUqQptr4/MgYMuhcrpXC+1JiLZf6gjogK+77FfKmCZIAZfQZ2yIjLEI7o5UYnJGngTT6uzUspXsLQ/XPW9Yp147S8cyEMOHZEcCNqwpWsVJf0pS4zqI4cQm8tGolKfIzXfbmwyLRaAX1KEZalsq6Hxp2xFyFMAjE7c1qWoQyzatdIzl3wCYdRrLgsIRQ7mRA1CYiJEw5pr1w4sv3YGbrT+Ryvi/WZN6H5LOR+8Ag5xysVOpSYSY0aMcldSghYBktC6ztVfHgaIjGE7xBcm9dlhclwZYjncKPqhlVFImfWMBSts15LVVgfD3qDp5cLZt4hWorG6J/pRYUeEDdX392TFnHF0YLRWdebDxh8Og/POEkFpW1vXN/uIEI9PeH98QGjwhqPWqwwrLlXOXqqpgs48vieodXoDQnsOuRWQuMmVBwGMg7OjWXEJmZIhx3vCJN4szf9BNRwrcrQJaxuUMJD04VluYQypcW1gzAnL+9WwXomiXzlIzIJ69/MONeCrCs9jaHFMaXCWjQSadB/KSCSshX4OJQqs7toji3yF383I9bGmw/Gpk24hgY5EeIXiVPBqUyScTo0dyEOfT0Gb/hM9wh+oprRX6203SGFSo5Gdaq0Z+hk08JKCGd+lwfDQcZkVXKscY48ktFCOxBGFk3G3nVzKJZGQ5PxtKBuY/6aQ70OSlDiLkOGe6RlWWgl4F5PJlEOclxYlsjfDAzOlEs4dKFmsjq8SN4P40Lob9xbp+hOqTqSKj7ADWeIMtgZTFaI3hiPLlGwZ4f6LX+97Y310bhczkB3a4XEPkq0WgrjugUP2zBz06XjsDisIYXDLUpa05YDyvJzbPzF1Vg9Cbg+Vq/9ytJ+MlaAHqTAYGhSHENIMuB0IciE1yyLIQsA6b7ZQVc6bI+JkBqGQMIWkcos7JsPR/OcTHgPQCkuODpjGs9Iu5B2KyO5KWhgfuIcZ/ai9yQQDsap97FPSdun+fTYuTmuDyJnJmlzZ/thKIaEZMkYuXM6X7wKOidvlniXQWbILRqnEs5rNPN164wOzfj2y9M5CJic/Bn5MvOAv5xOvLx3RerNp8YPU58VG4bT24kWVWIS/UIp+OA4EYuU+yxd6NHZlfSYDAvFoPyKeh2NlhJlFZlR7lEQxeEQXOx8vEsEg2b0EbxHWfmAMylB6QI5vCYD4aCMg4fPCoC+7yOXMGpq4sCTx1eFfWt+jJpCks9uTlmKzRZe8UPsbQ8Zc+qaIAK8hVYnvEkqldyvsKLB3KlC25vPE7OpmKkg277S9y2C2fTONgxQH33uaeeVbfdcRdFlGD1JljLW4xWuOcYnniM0fcag08ONAlW1yBkZoskU5YpnzsQdWvQIjbKQiM1IJs6Cict5Yvn9oZ/BonljXcgAWSrjcChHw4JEG3iOTHJGzUk3ZTkFTG09kss5XtU9cWbcvLw9qY3I0WuhjsWJZ5dzSoUvWOPmqY7WggTV2y0DG6IHfSeloUVg7JYzyxVAZeF81mjMcavRYySOv9XIzs4MxNSi2UjFp+1Z90K05lSmao0APvIJYT00+e+Eg2HMk9Xa9z1aamUExNbwOKbOcgqVKP1uu3+XKqVWcu6tlzV4MkzF+7Eh2mAt24QtbnKaCDdduVmntR3jPJ2mOOy5nBYMbyFotocg5YhP3MpGSUY3L+ne180L8y4nMtwEif7/PpIqQlLeRKn6LAFyQ2zkfF+RmRMyTc8jw1LndBFGW3X/Vx5VIr7yqyMkZK13L/vXUWpEPNdk0FIuEnqChTeKfYy5YD3ikixP8mkznbbnPvuHaVVsa7QeObLhwW14ThHhdDoP5a/DktiscOwZbEtMdRXCVbrWeUlAj37nwvrwQPl8WVx4sODoCc1Pu5jBoy+kpN1SEBNa38DmJSuJKRV1IQuUpCoRv2Rix+8N9AOKeylMAlKE9Y2y+sSmKmmzZ9wiZdZq5WAGVaiWSVEZB+os3xxA1q2zPh6Ieu900uEZKuczJ+TrzTsCS1lQzSajyYhpXehm7Lvvs0qLdvUEMJmnisaeJWKmjHGE8c0iczyoYGPSpEOlnL8VvjYb3EYGHAZ2jwYkQhEyB+YmO8xBVoGHzDlLmu9PQ+WxhBad3pYDLCTjNEZckgop8X5UIs4UMn4uOgJJBkExlAn2rdO2nbZ3zpdzxC17eLRkISJAF5c5ne2UDmVaJ6br5SZ4v0fium5u1WrRKCHu3G43HvcHZCWw6UjyJUJK+NOa8fr1zv36wIB933h7u5E3Ifki3fXuzT3Suu3swZVbTgQpOkbLiPZos+xTAad6JmkUtyrFFJBxMDK8Vil1HK5bZsfkWnKoQCSy8ld6rVD+5XRiWerwWJ4z8OSeHVZE0NYOyzi0EugIcq17jHS/3tKxMBcXcZg/PL05s6dFwyNFiYflM6aSid9BWCbUS5jjUCqfJ5WZiAFlrDuF1uFies/ZUTnMnniXSvqAAaFIiDmNrWEjpByDNCI2cNbNfxircKhs/t7OhqrPqumtRY4q4Ft8u9dXAb1RVKMVehphH18K2+6zszyWDoSUwWOA7IBFLTYu8iHWnHloO9IX6km9REAr9MZSMrESnU5RWlx0lo2Yds6nyt6Mvj84nd7xfDrz1jr9/uDR/UIZT7O48qGeg4j8s3u24ekKSdFVXdxjpBglfFPGkAAhAs3o+c7XZSaccZQCNMYFoT2Zm1nThYhP+jA7dKYZp9MJzyBnlt3dfSZHJQL73mXE8InbEY+TZsa6UrRgxUIxI88Rlcw5Kqd3Yd/ykkwbF9OQbBf+vd7L3uhWnYoVpffN90WGjxgWdypJgpzM+Rw9bw/Soo9zc6vtSqeHejuLe2TmXiS8Tc8mh+dKooNxVhmfWMAvFSKOMY9FzbwS2OZ7ZbzJjY+/VimHmW5uwAvb/cb9vlJe3iPFw4ylxhzQzMhqjACyLGUIH5VKWWQBi0tlUKw3ahUuL0/u6NRimIJvVCmFbdvZ98ayVLQW9sedeiq8fDxzXipSLrxcKvdHcwuATw+8b52yCF02dKnk9WG9Z+mBf4uK1xZnHiehnEVPRnoDBp0t43A9OA/YkJNHhhC4GnrAHq8JQQqm3oM91fCsfdrHZg5RlCiQhHqqo2DOg8MJt9K6zuEKDsyWZYmYKCpLo4hw3byjoi7+Oi2CoZS6jHaDnmN8gqXyHv6dbX1wupzQEhA5ssgjbR2rEYlhS0E5zxAhc0Zt7BG5p9bDv/olOXMAehQXCuRA9EQtOdnE5KAUqavhscPGYvMwY4+UnPlVdKHoli90eZTZpJXfl+U+QxbSU+EDEecSOvsu1JFQChYqi8OmaZu/PJCzUGpPFrUmY7JETlN3lXUHe7/faK2znF5ovdH6zr7vfL1uVG2cl8Ll6cx9u3KqJ96/f+J63fn5y8+0e+e+7yyXJ+qidC1zIkicSZfMo8zkGDYpX6OPfE4pWZfFsEJzwkdSxXVgZo9BJPcr3uObWlSGAQDxieqZVCavanDmRcQ90e36oJTqvfhjLGswR4HBvZgSjIYV/+4Diw4U2nalS2FZLphArT5ZMXMs/TuBMLLqeFkW1r4Gk5Xf6SvuNknbca11ZrNH6U8PAmYCpxyCPUQGt6Zp3eec28wZ5QGGbGXPkWXVhv9zMljNDucooZLmFdS9G+dL5fp6pS9CXdLI+Hqd8QtKvgTTaRJVEqkobnSW00KplSxzUvEbB9yDjArQPhbYbSbpjp1jLnfiCtCF3vfxOt8MD3KKQl7qrrr4SKD75pZ63/ny+9/RzHh6eub55cJ2v1HLGarDo6eXE2KF9XHnsTXerje0LixnpS4nlqiolRguFnJLmnlPHkkIrw6h6L3RkimJeGla7exbiDgqHiovu5GRULIgCoz79UZZFp7qeWBtjb71bhEbRVl32za/7iEGMSSY8LdNjn4od3Mv19s+SjVEC+flTM+ZuD2p1NBoybgisfi0zF4ECbV6LCiqfm2CRF9P1lGN5GR+ZlKoXqLTmpDlScNjWxgXIO9wGe9XcYNgE+5mrJh9+emBMs/kRsJGnILFrIJEZSIsp8LzuxfubzewHaFi+Oyz1jaK+NXRPgJo8/hIFGOL5QdKaFFYK0aznRrsqFCpIN8NHDOyhCFrUw705AHLEYFi4uhta1EOErU8JhQpPD9fuD82ep8/P72cka3w9vbG688/cX8sWNsR61xvF9reeffuwnl54eX9C5dH43wzNmBbd7ZmbLojalwuF6RblKCHikRyKZN5dVlY10ZrxlI9Heh20qlPSY8zlMWfMT1MWsbpTyctWavPrs3e/nQ43m8RSUBzGPT0fHGaWAWiNMTwK7hH9ZMIo95JcA+kFdHZ1FWWJa4WiDX16TFzurpDw0i0udpFaUfxsvgEi5oDwaOaNs44b6rNfnt/jUSPTUp/eIRgYjLD7gLpiuv1gkfZScMUMQ0Z57jRHVUVEQ9r1ago0DRNbsCa0bVz/XZH6xJlRjLOYBbEuje/3R+INs7nEyqRppMkwz0hPTwOwv1+w3qhWmb/xNsivWMLOHgVsZlZ94cq+AUkuALJtIV5QYwPL+icTpUlbm8qpXI+Fy7nHZHO50/v+Pr1K69v39h653xWtnbndn1js4q13/N8+cC75x94ejnzfFpo68b90Xh9u7PuG3wUTrX4PRUxjV5NRyAq0gLe3Ni3xqdP77HS6F1Qy6K+f0U1Sgh3CIfbAwlIlG7cn/v8/OIVta3NfEsPyDZcm4AVlpMnsHxYRSSjohDQ79BI43SotdJ5KUy4b28Ftj56a2woB5kPRINNsrDidoCdjiKylCcJCE/4pqEcQhte1bcn4gjJTHr6zPzehKuGl8+4TOmo+/KfpV8jZi77VRXQzYduZK866tJWSwn6ej98jndcPva7I4SAuCJz9R6AOtQvNWMxL3XRA7miZOA/HUTfd/Z9o0pUt/oFLY1Eop6LyHIJGCXOsYAewpU1OKfTgphzx+4qLWIOpSwL1jrbtiJyYqnVZxmdC+fThZenJ/7wxy+cLsq6Nc5PymYbva18+eln3m5/osgTT5cPvDy/5+XdC+fzws8/vbGvDrG6blQp1KBQPUdSZ/OSCnqKSeXZ5ac6FGNerWADn/tBuAB58JsbL3QxJLh8A55fzvQO2+6D85xuTEytkdmHbvvInZTi8ca67d5UJob15OGjbdXCUo+9Dhg2lDd6LwsD3zujl7Dr0K0Zh9cDd7s1nwppWalMspjHYsQ2yQth/Dxv3RKzASU93lvwmi//Ny0S41MNy6SiRA4LYgoJI/nruTSNbHkM9dbwrqpIEZT0vF45ngnZPZLBORfLzFhOZ3Jo3GwDjz2URB8GlCgUPVFqJApncAvkHdkJuYIG9lyIxQEEPRgb7VAs8J66dpdkkTpY/AxgXRvr5pWTdaksdeGHD5+pywuvr1/Y7MrT5RNPcuf+uLLKHSk39v2NL1+/8vbtA0/PP/Dp40d+/MUPPB4rX98eXLeN0/nM+eQ3FDUBkU6Lit6Xl5dpVUacwLAcGUiC3+AqB1gwM9gagVbefDXrvkyE19c3BOX8VF3Qe1qlyfhoKRHwu2VrfWd77JT6HAo5uzItLKV7AY2iyvh+jTvSMwC0rFJWTMIykwVGZTogEkK578zo/MhIjSRkIo7wahJxULJcfpd5zk6eRY3pOSWg6LruLKeFJBoyz+Zn4N2qk44PAxAw3XNbhbwqMBWT4S1CgXt3SFl9vb3rYa5ApDQnBzCgmhzg9HF6y7KcqEunWqza62Z0WNLMpo4GqeFSxTd8PI5ifcfvgAiPE4LRAa8u9WJA78E2rO9s3aeBP1TZthNPTxc+/fAJmrFb5/xywazTts754jON1m2jyBtffvrK16+vfP78Kz6+f+HTh8Lr65XH9UHbC+dzpZRClR2j0HqnhtXy8oTI74RxqMtC742tGUW8JCIhlXUJGjUOL2rSIK2c78vt25Xrt29cLieEZ6z5cAnB7xP3DkH3RDaE1Sef2DKpVKQisWeqhbx31BOILvSeWe4hrC7w29Zo+45eTgevwGCdsJwq4391OOKQ+ngl96DBnS5KTOnVCRREbVDXCalQhykte+UNZh2bse8bosW9uAp9DwUpvi6X9kg2WuZHbLRfiEQRq6v38JTdJhMpwohDRCsLOa+ghxfLKoD0rC1ivJTpgJu9OwESWK36jTx7eAzI9kgJSyARmOUg5e8Ik3RLidfD0kCndb+bzod0eMIPFbR3pM6K031vXG831q3zfBE+ffzIzz+9cf35DdFCbwIt2kJ3uHw8Qb/R2hdev63cbh/59PETnz9/4HF78PV649p2lvQmAtaVLZqR0rUnFAF37/vu0wzlVA9NXxmDZfMWTjbgtKQEdNBSsAYvLy+UxYsYRYwSVrfHLbhzNKlDnt7MSQtdGGOP8JlkPkzNixIl7swY16uRKU1hwqTol0kFHo1dqRSzEha8gqHWhXndnAxFifyyf244zmbwuN85nc4Bx8MOqxsQNQFa5KlmZlxV/T1lZH7Iy3pkJBJ1rMzIPFqMjUpaOKnmGGw4YyvS8bkINlzRpcUeQOa9CAMx8zAMZGMWZ4071R65lKiLyI017/IyT93PgjQb2h37MsrZiV6GLNtIzl/UR+d4siY2zWzg6LxzvYrnT9bHjX2rPD8tfPjhA/rV+Pr2Rqk+ufvy7gm7bmyPndPpzG47Kneur/+Df/znn/jx8//Ep48f+OXlA1+/XbndVu5t4XTyBFBBD3mTCPL2KHfIKSI0xJYBRwyiz578W9C0YXkjL7C3xlJPPL979vKHOLXWGjFU3PGyBgvj3KonF7vDzez594mGoTBY9H+F/0rznC4oxoIKhi4FbA7XGKogSS4kI+VnUPLyzRCw8Q6DnByZDFMmGR+3K7VUiiZMjTiqGbvEPYm2EdGqf5/5dXG9Z8WvUerZYyBL9ir2O4PztE4oxh4GJ7QgCYI4ky7qcpvt0UqU03dUFrLH3d+VhZQJ/YnY0mEp6XVH7YZQ/vY3f/N3MsWBkT1numeRSQ8M7cvkXGaiw0qly6qlkHnVvEYt20nHcOO4kyLBqZn5Vb+ivHv/zKmeWB8PGiuvt5WlFp6fvFzl/miUktRl435b+fnnO/V04eOH95yK8LivPPbN46Koewq19O2XnMdrw0U7NRg7kKA9BM1EAioAlBFk3663QSvmRTQ6ylOCPYq8h/+/MzvJ1ozZV2HhuhmPh8/kLcUh7czU597JsIoTn9kItlMRsoU68wHjptm4/i4bu8RyJgDO4B1kAfGyolL9NmNEwvspvQuvX7+ybTvn05m89MbRWSGp4uGRI78kRGI1ezxsGgICumYAnwWPLuxJLoRI2twTtARJG7OxUpGOMd3wuj3k2Sf1u3L3aRjifTqynzaqZhg9Frix0nLyP49SiUNTvjouzXs5fIMdb9/ebqyPlazdcb1SpHgBmsMGH+9Z64Iugknjer/y9dvKcn7Hr37xa2QrvP7LFx6PG80K5/OJp6XA7uzUshReXjq9f+UPf/xnfvuHPyJ65sfPH3iuJ9bbg8e6sbVGwwWyf9eBFu4w7+PIzSchY/weuYXe4Xa705tn2jXG5uz7Fs9ZaM3v8fB6HxlwYDD/se85hC+hn3f2STbrOBSzrPb1hUmMyXHNr8PbuL4EfRuK51LgcMPpbA6jkVxwXHlmmf+AeubKknmP85gmk+3XYM2n1TxuD68jGwLoAp5wpY8Oy+70rrnMiJYoXIz3jameOvbS0vAGwlm3PeaEFebEfod4mbFPHzRK9kdJu/8k8y0JeVMWSOMYnriGijLaRgcmTPyaFkBm4NWZi7KEYmmZcmkW7tgpP+/ZCGGJ7+i9BU3q1n0RpaqyrY37urPvnR8/vvDrP/+PbPc79/s3Xt9eOZ0vPL2c2e8btI7oidNp4b11fnr7xtu/vNLayuXyng/vnzk/Ct+uD+6ts1zgFFNGOkIOs5sl8Rr8e/FyaGsDWaoEHt8b+/5g35XL5czT5QUp5hXHw6J5clAkKl2G+KUdS3wsh+DUcylLUZanC615c1nrOd+LqVwC45KZNGgRg2oopT9jvCaEU0bHZs4xUzQImjk7Kj2Q9+M029l3iSK/TIh6SU4pyvPTJbyMBKPZPM+Sha/BaI3uRXPSxnu/NV2BD5PoOayPqDaIspfY05Ktf6Ho1rv3/xAGJJxGTp8nWKykpyXK5I3iUEwLpST8C/UeEFYof/Obv/m70YMeqnGIwkjmI44UFeXxuJN3mJt1WpcxVC271QSjLpVS/Q6Q1mw0UhHZztb8jg0P5HUIqwiIGtvWWPfOu3cvfP78gbaufHv9mevrleV8YnkRZFlYrxsvLxdKFa5f32hN0GXl29cr6wPevTzzdFb228a6ddeBUocyWwiNDqXP2a6zAJGIrwjiwhU/SyLawfKGIGoOIzioRMQuErDIJxvmZ8vYg3XbvDPQx5qMYQgSrcLD1xsjzpsJPme/ttUbkkrkJua9jLMKdkhUrG1cDZHGljzj+ZrpcRwq1VpZTidOpxrEDMNTlej+LFqGUqSHyX3etxjyFi3E7lVkQCpLqJZmOyYeFs2kppffAKPj1dGMH0bv8/2TxjVgZxZqOtSSkP00iI6Mgz50t5mNKQGz1CIYzxIB/9KSeD56EorkAxp9TB1n9FR4z2+Lqti4T0/nlV1DcCJ4XMrCUhdOZ2Vbd377L2/s/T1//m//is/vf8V+v/On3/6Wb19eWWrjw8eKVuH+2Hj5+MS//4vPtIdwOQv7+oV/+h+/4752fvj0nqdSeLw9uD/uftWzRT1ToA4y62sTv2qMwpGo8xFV6uniLFvcrORBYrhmqdExyUG4DlRjfo9lfVg/9Fyrx073RxxS5qmiUNQsDo5DzVceZ6indR7rzW+4Ndxi9lR1YzBaGdVGIjLJ5tQDiIHhMGDkiE3NvAlpb15rJX63fJrSEuzdvu5DaInekxwurrrELGGmgbBAKPFMmYvSGDPp96Ik4SOUchoCnghn1F9F9ccM6olYGC+R14VYVhghLzEtkpDNKL/529/83bEaNj8o/zh0Xua0k8TV2ZwyKLOAWxmfWGpJfOAoiUhLoIn/gn2P0vFGBsyCKGzrxu3WKOXMp8+fkL7y05c/8VgfWIdSF87vLnx4uWDm853Ol8KPv/jIunaaXbm9bZgtvP/wzEnhcX2w9k5Z1ClVZLaTIhOTy+H6h1CBfhCEcafJofvOmbHGUWiz027ucXrmeK8pmcATMadghcD1M3aRAZ9SgI6J3oBFMYm/1ppdtkNo3GpvEb8kzMu1Tro1PcaxR93VKT2rP0vvbcQe2ZXnL49qimaRn7AQVf8sizhWjz8bNWWEksrc1xk+hG670RqHkx2sAlkII5TwJsIYpzT2ePblj6qE+BKHiQIUqr/Z8a8jK/F4RLtnguNq4syKpqv0wCsOLXoGRHMmVUKXg4ZR4gDBpIcwxuvM8bMhbDGRe3m6YBTqIjy/FO73jS8/vfLxh/f823//16gu/L//33/h97ffcvvhyv324OXdOxZdeLw1HutKPQu9b/RuvP8gfHv7mW1vfP78js/1xOu3N66vK1qE9++eEfKmLEtoD+YQcUwVH5i2BzQ7PGSWehwscbI1KoqNYQc9SnkCWmnY9qB6z+eze+MWwbNk9BJXQfQ2vmN0F5BdgW6lT6ezf/cxDyJtGKxxQagQz21k3JG1WXMc7JTM2RM+cww511a+C5CEpZ5R3RzKRiHkCI7FE8YJubyk3yJOjSoETc/pnyvpUcjnIeLhadhSfUZAFiTBmLuGF2WCx0ZIj3I7j51G2Y2516oGmDXa3tFTRcp0cUnNOgHZQ3iN8/mMz4jNDYk9GZsTIz0jcHf5mbjZxUucWtR4WAOzffaTG6GYQj1VLgp7hddvV4wX/t1/+Cu0CP/wD/+Fb19/pvWN2/WVDx/eczqf2dfGv/zTGx8+vaO3mLJxuqFF+eOXxscPz3z+/IE//OFnXl/fqNUvrVEMrAwYmAKV+ZsS7nwWw6XoxiaMfE/cj5GKBmSlbVpygVEHl5/hc8S+J0Z83xyP9yjhEeQQJ5lbVN1deXpY//GzQ6+OqneEksoeFh0nJlLwiKBexRvoLAdshEG08fgZ2U7TkAZjb97/XU86kvLjam12Z0iT6jdDZYnPmcnA7EmJhwaix4SM7AzPk2SRLYcNz/dmIjtCiBijNPkigbimepTGFzcQ1QMXr4ZElL67YNci0bTubFNdTpRqflGmeZ9CRvuCBtzKoXEcErepzX0sPB3YhGfu4sxaDDL+V0EhXupQLgvbdudffv8Txkd+/e/+klIL//W//l/cvl0pqtxur+zSeHk+8/xypnGHRbm+bVzfjPqryvXxxv33V378+At+/MUPXE6Vt9tK2xvny4lafBhD7w2/Ojq9n9JtRzUGMw8EZYeDiWuts54t8z6WT5JP78FoCStvkTQTI+JBGQYiBQPByyZciiIhq6zrnVIqdfEaMGIpUXGOaSiBAc1iFKvF1MyEMXEOdvgz8v060h6Ooslkp1JpUj0aKgut7bR9p9bsK4es2cqK6JRpfyS/6k8yJzFuC8glhceVVOgoW+8NKeU7xSXitsyRZILQVxzV3qQH04MRIyq5XWzrGMsinoTpcf84tVCLa2BvDSvd22bDBQ/ePu7g8JFBFS927EjVoNOS5+/DImZpBNbHwGvv5Ns8+6y+Hj8eHwampliB01Nj3++8vV2xduLP/vwvqMuZv//7/5PH/YEWryhqa+f5PbTVS0XevfvAuSr/8Pf/nR8+fOLzj4Xf//G3bPsnfvHjJ54eD7789MatrZyfjaUsFEtmJczf2PiEE8l3B1wJAUgjOQYpS87cSl1y5Vti7JA7BR0H2XvWIaUHEbB5WWe2nnpCK04y5ATjpQAAIABJREFU4pXWm49iGtRw1DFFL7sPUEvDNSSP766C+64aePjGoXiptGOeca47YFDS/0UX9Jwl5v7wOeY2IdoBgJDTTors8x8zf9P7oJHHd0ZuilSCDCMwEO8D6dZc/qIWbF1XehOWcyV759NBuXLl5En32lXiII2GUWLgsh+nqrdylrgfxHrUZEU7Zl6S6B8c5e8QUCJcrtio52/NvD4mNNTrsbzcWAOv+w/c6jl+9/JmjUl1z88vnJaFbWt8/XqjG/zyl/+RU134f/7v/4Of//gTzy8n3qRyv7/jw8cn723XlZePL3z6+cy7dyfOS4F3nZ+//oHr9cG/+bPP/OLHD3z56ZXb253+bJyjx7tHbFGGMffk1ZiQKEFJkgqUQhdCQRaBMuIJodO61zc9PV8oRdlb9wC773FrVPcaJ40qIUvIF5jbfM98hq/RtjVYdDc+s9w7BdHIwHxOZrdxnpqUDlmFzMi15DzcvFZbY1p+xgX+nhzU56qcJMRMvLliZrLZ4tqCjHX8Mw+kyIifUjHGg4y6WJdHDYMgQ7EkvmtQ9wLp3YMHJNt4zbzz05nE2WCGGOVvf/Obv5O0VshgD+YcqcPPzMa8qDQnpRS/i08nXsxxo6JMvloKWhIvujsVIWqCPNvpAWlYAxKvElcCNDLkKdVdcOuN7dG53+HHH3/khw/PXF9fuT2uaIV3H5a4tEf4+euVp+czLy8vrPvG/XH3Q62wbytfv77x9PKejz+8o2+7jyWSOS0Rm+UgZlF2Elcy9LityQsbE9/OnE7GdL6Nyd4A0tnWleV84X678/r64HQ+O4Qz4X7zwcseoyTeTqU79kO4YNS6cDovUU6eyuE/6znuM6sg8n9SYQejtY9JNCn8HizHGkLWBgsUQyKM9t3n+WeOoODggZLWjx+Fb01yREYde5h1cn2xouwlmR/gPy+RmSdqs1IR1dd/v6/07mNIc+RQGrc0bxPNRTwC6Oigw7Oe3rDTIG7psbzVMZkTSdhwKPqznHs6f+mg14zr1W9zytBrb8mmzLBuPuv8uxDl4RHMd+u0zUtXaq08vzzx/K7y2O789ndXnn/4NX/9n/43Lst7bq8P1vvK43anA8sCaEeXxlKdcHi8Xrl/u/PDxxPdXvlv//jf+fL6xqdffOTjy4X99uDxWMNN+z50DwSC0hRE3IW7AZkHm8Y+8XDme3yqpAcHRU88Pb9jqQuPx4PH/eqjlaIn1O/UIIxvP8iehrpMGNTbLP+Iu3ni555fEc33JwNj/0rQAl7FLVsz400oS5SAGIEs0it0cuRslBEzKgEtLbWvP2l0j01GSSMjiRqKkjfwpsKNjzJibX5ttg2P5fB93/dAQu5e2p7PI1jf6H2LvQgoZYbZPpQ6jUAPLwlQ/uZvf/N3/tOp+RneD4tXjrhRh3vzGKSzrlv0hLs1GUVvISD32x0zc+oxFQwZcM19pcwBZJL0ccRH+CX368NjpNPJL7PXyKVohft95XbtfHj/kafLE2+vX7m+fWNdd0qB53dn+upJrV/98hOX8zOijV4aSmG7P9j2Gz///MbWhV/++JkF4e16ddtYatSa+T6pZLKujHV6sBd7R0KtyIJLdrOFXVRh33t4RJ/rtBTldDl7nGbEHRU+BnMyitOq5tjU9E69tTFBXzQSmzmZPhXXJszzM5p9ImmbU+g8o12YRIodPgMGARMkg2oNx5QxWuzEgcEUhX1/YN1vlkp6a17XljI047bDaocyQ96bK+RtXL353faSBafhjFSUUrzeT/A2g2mRZci15j0wmY6wSBQKLX2+b24IqmqNq5ejF8Fs1Lckkk6XqQdhzg8XMuHnJQmlRjWvunLkCJ5ZpzMnDuZhjCmPImzriohwOkU5uLjLdi9vrOvG/WZ8+PiZX/7yM9dvr/z805eAYy5Mtxvsu3F5KVzfHrQuVBWs7VzOZ85n+OMff2Lrxi9+/MRZK7fbg73vmApF6wAMxy0mG5kCbuSk+CGY4HVao5I52kxjHvCynDidziDdY49hPT0formnByUp1eufsgTfYhWZf8mD7lmcqIecwjCCNmDxiDssYMZICNpQfv+zz3AOCQgNncgivSbpfQSUSExqCWidQwVHWEGOLXLj6FY4q57dICuiOf9s7rkwjWUqrogbofTIpZSIqTKGyedIRi4qKg5lBAZUHboYYabkj5y6bfuGqs5saMCuvK7YF4aPkDRvyz0iZTPl9HTBenSr4qDcKLH44laY5l1xbedyubirNWPfdqgV0cJpOYfBsrGpnuFfuJw9I/54rHz5yfizX/6Kv/zL/wWzwk/ffsv19Y3W4OmycL/eOZ9P/PDpAz9/+UrjwfndE21r1NPCDwJ/+uM/YWb8+b/5c35R4fdfvvLohj6XMUky0D3EnJS0rKreVtvNQA3rbusc53oQ2FqjlgrqUKCLt9H68Hgv2fEZWO0gbJDlHhJ77wmtpDddwHr0qWeHYGb1l5KTQVKYs/Q8nmYA81R7HRY+BTKfO+tl86WaCUPCgA62z4bCSNBZJYyxWZbGT7r3QMy6IQ0mrwTj1Hp0Iga8888RstJj7pG/10KbWuux/4mMCqOvxojCVMsbN6d8W9RKzQwlA/8LRi1LFOWJszkZhOI07r5vMb4mtTddVtwY2xptbzHMYQZkZj1uscovjLxA1uxknqDEknujVr9yIe8mx8RjJgKOnL3EpNnK7373iugn/ue//l/5/PHX7I/O7fUbpRrlufB6fbDuV1hWGis/fLhgcudPP/2Jy7lQy86fvvwz/+2f/pFeKr/85ScuwP16Y933CAgLR4ztN7YWn4weh9Wb1ysdoY07RBkwG2JeV9/G/qeQaM7RNXGLFwamqLNe1+uNW97WS1QOW3p7P4cybpI9lo0kfRrfI3IgYAxionyWxc82Y3+7e8hUmOPvUfw3nsOmV4ln8iqMA/VLkjT+/vQegsed97e7Qygztm2NCo4S8bKF4d7JZKp7wYB9kagetHd4st6Ntsfgai14qc9sJUeKG//BKycNOZBoYLDqMciICRRy3lNOifBNPFaIcsDlPi7UevL3zO9TGeJlHZZaWM6noZxiQl3qoCtbc/hhsbvj4pue1yF4e+fleaHLxh/+eMX4gb/6i//En/34a7Zb40+//xM/f/mZbg/ujwdPT088PT/71MXmibrz+f9n682XJEuOc7+fR5xzMrOqq6qrtxnMgARxQZCURJnxVUQtdtED2pXpSfoNr0mkQF6SdwbLYJvprZbMPFtE6A93jzgNqskedFdXZeaJxf1z988/jwx9R98V5uk93/zy14xr4sWLWy5CZDpNTPPMmlNLVaM99+uamMZZLVjwddVaivjYMtmIRlhrLKaBLAYbKwMVANfAsn6H0BFiJK2JcRwZz9pc1XVqcEJnYnUUa5fWS9LiTKOT+ABLvDpfqv3G/IwOy8SyRwlXQPRIyEdZ6Mt6XKBBsIh6i1YJrxGYtitjtTOHbX4WSrvIOa+s66wGMqoBtZWrMbL/jMol53bJcLjUuHNYnUfh8FpXuOREDJFhUGqVwvKs0qN++10KHgnVHXlWw8dkBWnK7SE2C4QvGKiggLFHa3yHfnjPWBRULc+LVv69nnTTgtZK7A22lcA4aTKg61oQ7P/n2bAgQYfRX8J4Srx7d+T58xt+8tO/I2Xhu++/ReSBEGGkI5QD45xYzyP9riPmA0tKdLvIOk88vel5+90Hfv3LmS+//JKb2yeEu0ceH890h579sCMUKCbcvRXHlhBsVoheAPd8KuJg6WHR1CRlI+Zg/yueXjXvI9D0qXBPVOz7AkW8GGlWMPv8xdguh+2HJ4f9yuS0UghWjwIk1lriugKh0ElhLZ5GdaqEHtdMqTVNwCBKrLM48M9W/6uAqmqM1QunnsQHBXVxYDiIZZ6KFqTtIoVgzbFFCCHXUEH/3bhy5vI8g+fPG0NPVaYOgdBpVix0Owha0Ucgvn79+o0XT4SiXVq2U1EUWqU1ETudRhukZS2qJSzNMviHaGvVQlmpX3Vmb/uuGGBdV5aUrS+7QK2NgNYcWjykkFAvs2tW+bw9F2OTKKxp4XzM7PeXvHr1jGkaefh4x7yMrPPEcLGj5ELfB/rLjqvrS9I8sSaNiciBUAqhS3x4/0hGePnyOWVdOJ9nsL4QjF/V9V21/o7DXXhbv6YTeTWh0YLUGoDrI7GuiTUZ2xWN2YzRWRMZXdQYQZMWVMX5Gh/ZuoWAduAZIlBDUgF1+yVYb4XXP9SAnU8nKMIwdJvnqO9Cra04ZcMC5HleWOaFbujx2DRsLmnD+n4y7LMbw0AznVGfEzbwsBiCcQOscZJnGfWlW9HPYZW+SkepHkXTxNGSF9M0V9juACh4Dtn1VNV1lbrAqgg+UlIieyxhC+SuuuLWeuDd0W5+b4tUTq2wWEQrmjrqdxlnu/HB+oTd8mSG3Y5oi+f05SBuBbL1w+hwnJIDUSL7ix6JiXfvT0zTFT/+T3/LZ69+SB4T4/nIw8MDEgtdl/jut+84Lmf6ix19F7i5OtDtCtfPD+z3HcP+zHff/54/vn3P1dNrri8umE8z53mh2seCKnhY9111AXjGT7NOIZTWamoxSaj/q1SUtC4bo1Jo58PnggtDP7Db7wwWODzT9VK/arjcNr0ASzKvIi6yJzZGz37Wx/EVZ1RgjVOaLdJYRfy4+2lvPUJ2+MSf35i+3pJNzcb5360GZ1k3KS19vq7rJjbykRfmlcumhlLUmLcUkb2+lJqoyjYuPGdNEPgzrusKrAQSaVlqBkxE1IPoQfdbqFuS1rbgMURi37f4xW6I07P9cmyJZL7ZzYn7D28dLY1ir09jA05cepP686U0NuknlgQP0kCr1F5R1RZOHbWmDIDzaWZ/eMLLl89Iy6q6wPNEkMBw0bFOK6eHkf3FQAyRXTcwTgvdvuf99/fovPfA4+OJVDqePb2hB86nkRxsmipitH9366gXTmutiBuWaHjZLGktzFnqvLMkho8IcLjqFeO0rlWCtL5fVVC3PbID7iP21mVlGicb9KMXJHaaAv20iO2ZoUDsu+q1q4eq+2vwzzJoy9ouvsJh19La7Kc4fPcmsJbKtyetxybnQtmspV8KNa7upZs3MxJbbSFoxVs2a2iDi8wZYBc/dtGmXrV6Vnz9+mdv9IG1Gup58z4K/aCjmmvwF0zbqGhgFwwmuDdxmCF4sF7qIoLL/1gcUyygM7MiZNuIrt5sscX3rINawIJ34jUP1uovSiw0LC0gRNNu1djofFqJ4cBnn78EgfuPd5zHibxmhkPg+uqCEIXjeCJ0O9ZRg+phFwmderW1TJzOE8taePrsmp0I59PIiootB3QsQoi2EUVTrV3X2f3wZ27KIRJUIwxnnYplnuzi+y8/FC1jaHGiBkD1e0JUC99mgGxrMG6E3Cj5ZC1NKac1EUSTI5pJNfhtHsEHz3ih0uMh0H6eKI0eE0wzzeMvh8PtlwXP0mozKdkaie+hz4Vs9TJ/v/b33KCawe8qZlGaAQ+YWLtlEasOsBlWh3rODvH0hQYqsa156KKSFLPK2OSEcY6Mp2JZCntGoFRtJ8XKPrk1s/3l5DWFWpr1SUkhVk66wGn14S4euNPcXoUbttk1qLSFdyJl9TxNnLjrI0ji/uHEeRr48x/9D/z4R39NVzqODw/c3z3yeD5zPp4Yx0SJM92FBuwxBC4vBtK68OH9kd0+8fDwll/99g/0F3tur5+Qx5lxmlnyQkqL8bQ0q9R3nQIe04dqG6Pr5/Ktrp7iMOqTgyReiHPFESHYpaNCHk8LwzxPeunsfXLWeGgYet2loJod8zShcqa2unm1JIkSVJVCb4czNOMH7fz5CLeh71VID41BpmkxC92mjVVjCpbd80SFnp1ok3CxM+YC5A4dG2Stt0ETEmwubbE25rLxiqCJDKEml0pxj2VFWUNSrmrfuXsq2aQco3Z0TePCuqw1pSsUxnGiHwaNDZI18JSVLkRKVbwQqy1p5kknBNnXaubSrL1RENRl6s1OXngTU4gv2jWnECRSuTOeCiyh7pdmUnTKVafkq7oXUlRlpXsSWJbM73/3lsNuz5/96G8IEvnmV//MeDxTMlxc7NlfPlFcz4L0O+IqBOl4+jRSJCIZhmHleHzLr36z8ud/9kOec8W7u0emAn1vrZ0KoFTGvzSP6hmWpiRC68/XHbfT5wbIN9k67spKyQFXKtEOwY0ySYGcFhPKsLSuX1CHGV0hryr03A9KFSroHJGUrPHKUYOn1YMTWRvsCTXOSlax9tgrmwcyQTuPEGpBr1RYV+sWIVh6XEfu4Z5RNPkf2Hy/f8U5Jbhmcjaksk2WWO3O3F2LlcBjYLstpgmsyYGgZXqx/P2kBLm6UaGxVaPqPq3LYjfPe6UtQ1Ldl2ZW9OM3T7AmzbmraIP9ZFEBa0/deWFHiW2rFSGTWQbL2+PexJu8rDbs1XU/YOZmfd7i0A9Vf2u3H4h94ePdI4+PgS9/+FN+/Bd/TVf2lHVlWSZOx0eljyM8fjzRHTKn8yPneeTLHz5nnScbp9BzOr/jV9/+hu5ix7ObK8o4syyaNFhzYTxNrDWAtqKUwcsQjYMGBkustiOWabIEWQgasK5poWptGY7P2ZqsnC9XCgTVsVLdYbekhv0Ldb1jHxl2g8FYV1HvmiJLaVZZ+UreA9Rwknt4tcC5tt/2u4F+2CiK1Bgm45FnqdCuHeRiaKG2g5u38u+vvwo1rV6wOMjfo/g4DxW5y0kv/5qcOewXvNS1wO6CknbVk8Svvnr9xiP2krM+kP1wCKJ6tRLougHQBnwJwRpYNH25LGsLkhSk4oljdXdKrYjGv9IDbXFFUGjgPdEUYwKbQIS6W6kWySvQLvvpGRF9P3XNMXYVRzaNJYUxpSgvbHfY0e8C47iQ1sjLFy/pusj9/QPLsiBklnVhFTjdj1xe7Sl55nRcoBsYukIqmdB17PqOu4/3zHPh6e1TLvcDj/dnFtuIdZ4Ioa8tyiGgqUzUY28bj/zYFzvQ7iEllKpS4nGaegbH4IWarLC1aI1cBr+MtSBidP1CpfrgMYUd5kZwLFSeFQ0Se/Gw4K/JBnW1YnMtztEOpbBN4zb44/AwJ8uSWWOIv5q/or+esjecPt/i47qS4gwBPVshaE1N5YgsLqoodwt5S92HUEpRwlyMDPs9BR0F7Xer6wdN8WUY+kGpHwWUBYpdJo8XtPuv5FytogfbXdeD+NjmbhO8U5tyCErV0DpCMG5NqJuqSMyCtSKWCl3dCND+oHKShWBUDbMyPosiJ3qjy4c+83A88/FO+OKLv+LHP/orQt6RVrX8x/sH9jeR83jm4jJycVl4uP9eh3KmzOl0okjiyVXg4eGP/Oo3vyEMHS+f3xCmlXVeif2gUqxZSDQC4XieSKvTa6RuKiiR0WnfOWuLb9f19IOqtzeeaxO/oO23eQ3r5MzbYNXoHMUNhscZi32CupgbuKZkxlRWHW0WdZRyNeebbKXXgBT/ZxXNqDBSYbyeCQsOsAY8g9wikNKiRreAtxLUG2jxGjiVRo2lCvwpnPfJUlLRWUBs3qMmL/TMqyiGX1hfQIVXSstPhFysIdZy0EoJSb7MxE5vfspLhTLeSafuWJmowRi4mk0ylxi8gJRBPNjzFKz3SIhxskJ1a/M8M02Tud9cf3v/TaM+yCagKhBy9VAYLT8nn4xrVVZJ2leSVqQIu91Af+g4jUc+3CU++/wn/PQv/xZJPdNpZDmdWMcT777/yG9++4F5XdnvOySsXF9esJNAKQuQiH3ifPoDX3/z35Eh8oPPntMXWJfVRgZkyIFkbac6hlmDM7Xitm7mOT0D4S2sHtFg6eECdQ3BGQrGKhCq0fJ4T2gwSvektAtRPpVdrdNsvSVaN5SuH+gsnqqezk6LZ6P0syYjvwaQ2D5X/SWosoi/oRpFRSt9hXjg+yv+/3a2jHYiKhUlWBwmmmYXNzo1+aAUkm3yYyvK4b9y9nZfjXfiVz//z290Bd09tzQj1D2r3sIDqbQmgzcKbvwGeqC51iEpmj/3Zpk6vKVkfHBNLiZraZ4kW5yjAg6+KG79/M9Sxb70bzoDcTyNlBIsSM9MJ03h9oN7ooiY3KXHMl2nlvjjxyPkyIsXLzkcDjzePTBNJ3QKamIlUxIMvc4cubnVqUUpR4Y+EvtIF+Hu/iP3jydunj3j6uLA6eHEOI8QOzrL04cQtMc/RFWdtK+7AfI5ImziKu35tsAcqFNoqx4vOLb3On2T82lrp98Xa8zgYxXaAdxA5ODWXeMmVWX0QqERfWoba6nwzN8z1DTj5mr4xa9wcJNGRowK/2m3pIM1f31dN2+zVW+S1pV5XOl6Z19Aq2nkeqn1Tm67Vz1ob/AsiDhX0O614bSqTqfLZ4dfbP65urOUkzZRha3VkXrwXci52G3NNqPQL1/dQgmsS+b0eNZGHxGEzO5woB92FXXYR24XlZZbL0YAVGuHyd4sqBoJm86+RsOr8p9FCRx96Bj6jhgTj+eRt+9mbm5+yN/8zd9xc/UZ4zGR18IuCv2+o4TCPM/cHR+5e9TGrJz0wocYORyEx/vf82///s+Maebzz58xEBhPZ6ZlIksmEwldp5T+dcbrAE6TcfZp7diUQh0i45BG3GdbXOGpb4MdDmy2ImluGHRxVttn+0JNqG1S+JYmpxSjp+RqSDdHvsI3j11EGmWlvbW3MDuMpO5p8VaKauE9drLDW+fYG5EwrUzjWZFAiLUwSHFImVmXmWXRkXYe2/Zd1AtUy/rbWoo2Vs3jWNX1W1e/LV6joxer4OoGLcuMFlbaoMWtQrb/UrgpDP2uuuphsA/l2FnNny5SVgpzyS7a1fAoBqu8Wtqq676w1iwTjKckwn6/Z9j1Bhwy+/3AsBsMa3uK0ve01IXphz03T6+4vNoxp4W370YuLr/gr//m77jYv+B4l3l4d2I6jjprMeiIgovLAy9eXZLWhfk0EYJwebXn6mbgdPoD/+3ff8HjPPHZq+c8CZH5NDEvq8LIUSFG7DydSU04TONIWrQ5yKobeHzla+BxntjXW8rY+87zf7TebGga0lkvjscPfvEiVEqJJ1WKyZA2n47tr0I6t9SbC+NsgVJqgqLqcOkholiaVvtaWoVe45FSvUjrL5EaA6uegaV+i07/3V/scfEJvZx62RSOqjFYV2rTXrvAngUVW+NVL8zr16/fUN+86aTqOTY3Y1XRGE1Gy+OVDSTzD+G4IAR/EOiGjpJVFb3GAraQXRfp+05xbU7myNz1hbq/NTAz1wkNQ5bSOu5UlcW6FUuxoIyNCIUfAtED5LhCoB+UUiFdZppmzufMxcUV10+esCwzdx8+sqaFNa3EITKdFp4c9lzd7KHA5cWeXFYSsN/p6Obj6Y77+0cOlzc8ffqE5TxznlcbOKmbqnFbVz+HZ3JcuxjEUu/QuGkbHpIfbtsTMVVMMYEMbElrDab+fPj037YVe/tPgyrK3FZxaRXm9ri5iBCF1rDkRlDM89efT/YaUusz+hI+PtohubEjfJy3OZPiV1w0+9dZt6pCeN3bGHSWigSINV2da2wyTxPn01llWZ2kZUbB7iyx603GKugAHdwbFGoO29/YB8SH6FkL72lo+bnm3hvW3R7slFbNGPwHGRqLAXYuK9QKaYZu60XyDEe7kKoerjpHSfP97pVKRay1qFVwKo1UaxGiQ4CCaslaRViKsYsz43nl6vKGz7/4jJQSd3fvbVpvYU0L/a5jXTPn88xu2FNWpbMc9r1SdGJhnh94/+HI4eKS29sb0nllXmboxSZY6bNmKUhRCo/24XR1fXXWiB9AXyM9iDnpSXYekcOmSr+xmpZ8eltsbY1ZLPUE2qEJNZ4UW2s3SkF0JmJlVaAvl/1di1LNg0jtVd2mjYPpp/n7t51WeD+dR9a10PedegD509jGvL8UyMG6L11H2E21r5LFqEU97jrPLMtK3yvx1WNjb7nIBWMP21DUr756/UYxvcUQVtL3EWnqDku97Y6L/aBKvYXNK+im6ia0HhD1RpgHUr8YyGnF5xXqz7UAq5qh+vr6IPp9VgTKmhiInXaY6ZmxVHDlebWLVs+G6NfXtFZL7BkZFRnTFPGaVk7nhWF4wqtXt6Qlcby/V9U/M7EBVTaXEBROdoEYhfO4IhLZXQTG8x13dyd2+0ue3d6Ql8x5XExayMQCMOIhn17eUgrn80gInXlNTTaoN7cDYAIYeU2Wim9Q0sl5bVCNex/sEplxxEimTvjDUuR17fQZc9LhSCFGG3AaWeeZdVVxDZV8Cpt1bzwrMTTiVj4EnUbm91XQLlUBnWZV1Mj6aAYnF1Z1RmeI+8/Xs1m0zbs2pOln6KJ6v97oNtlaO/wsu8IlRVPS8fXrf3gj1ZK4m7Ti1Wbq0FZIoV4aEWonovi/GgQQxftBWu5Zt8DTyX7hCtifP7FqNGvRLkfgT9NyKrS2TSBq7JI3kIJqefTBW4yp1JQQgwoq2NNGSxequrzmwx8fE1134NXLZ5AzD/ePzLaRpUDsA8M+8off3bM/HHh6c8nH948gwm6/I6WFcTrycH+iHy549vSGPCfOpxFiJEYhGv71y+o3VlXvdUyY0ugbQbRYMSyGwLosLOuq07oMOrqJCEFstogbtQadPIWsBdpuc3H0d3aio62dxyY12C1Qig4P6roep5Jb9I2nn71/tL5/cANYbzIiqvKivDkvoprRZLv9dn6Me6IJHtk8l/1coM6QD6imWuwMmmVNl1NJLKCz3kslZBibV9+ppbuapa2sSK+61EdS91ssSxXCJlOiYKbSsitHvxLyDMrV/gNrEW3GygCCwzeqW613yM+9f70uvAZ+InrgXGa/2H4FG/nlFjaEbvO6pXLPXAUkdFH7+0vhdJwR2fPqM626P97dk/JSle5DFzWwjhBcJihndv1AWiH2mWm55/37O2K35/nTp4ScOJ3OEJQtXA+/uFfQz9x1Bi3LhplbfB+IxFWlAAAgAElEQVQgi65YsB70ipYqzBLOpyMpKXTZCl84UzoGUeGMbF4IpSAty0rsOlMTUUM3DL15bT1UMXTa6iuCtl/rgf+UrKobqVuunnNZdLy3ygBFQy+RIIFkAbanacsGQRCs78cC61xcqBrr9xN8vJtmYAMimWXRyWXi9RO7XMWQh2Yi68qhshqWQqs4tIjz/HB5xhg6cp7NMusBDxv41a53zVVtgo3marWtVwO9IJCSXgTTZtDXNnMR7PVUtcPTkxnvf88FAi37QWmNPCEoRi25WHUeu+jmXewT1SrvlhpdzNolE9OWDjkUxjLx8f4MZccXX/wlXdfz9Tf/zDKeCQLjseflF7ec7xZ++5u3fPlnz/VzhMLVk0vWdUfsPnJ//8Cvf/MvpJT44vMfwIfA3elMEWHoO0LoNSsjegFyxevNA7fDv0nvho4h6sFPORsnMBglRw9Q7ciUlbJ6TcGtfGaeJ8XesbfGs5ZuXteM0BNCRmJkTYs1pqEGNq8msqdQ2SGxq9ljBtWSaK57yzKt0Hfsd4F5XY3p0BuQ0NfwNL2ZXjN42vtSKFVqVE+Eft5pGrVm568n0QxDqsZhc29xlZeSAmK1pk5qr7B9Z40tLHWA8nSyuyMvzGkVSl2qxRBa/IvVhfqG4gF90QfxgpenDpWpC97oRNEs2GJ6UDEEcl4R6dTdl+Yai8150Mmu2pfdeSCO8pe8IIm1WBZjtNbUqdh8Cvuriy0ko+B0UdtuOUQkJD4+HFnXC15+9mNEhF/+8hfM5zMxnnm8HzgMV9zeWs4eo4lEYR8PSMnIdeHh8cS3v/1XCvDDz34AwN3xjFwe1BqjlQw/DL5JOm++GBeOajF1ZkggW8XYW2qVd7USQsf+4pKcEmtKyksKts/VxWpmKEYnj6LsbU90FLXkoMGtqoJ0hL63ll7fl2BwrLp+1d3y+lqWWkMLUY1Z7BTOrstKSomh97mDoYpiKyRuMLx4s5gfSDei9SyrMem7XrNjudB1Ae+m9Ayo0qa0sL1ME7kEdoNqVHfFhob4m9aoP0vF6oKQsgaznvLNJHIJ4MoiiDokklcndDG2uXoPlnzHBQ30KjmsVU5LEeZpousCYbezG++kSKs0u8ewRn8R7GAVpvPCbt+ZdpQt4AYmNjhIPUigsVGx5rF11YH0qmqvvDSJCZGZx/OZ9HbP8+c/IgDffPOvnE8j0j/CoefJk0vWcWFZha7TnvIiwrC/IpdEunzgyMi33/4LAnz5+ZekXHg4TojArvMR2cGEMqTuiWN5ApoODh1FfDRZsn0SjQVEYVBCdQXmaSIvK/uLwVLqgS4qd02Cq8rovvrkKNHsjc5uMU8sBbqoLQU56xTdpsTyaSo6Z1XE9GRIlWBN2oKw2++U24ZKyvoFbV2GTmES3UKLb0RiJSJupUs9vuyHTpvBBCNA+j7bjHpxo2z1sVIa1d5ivC4niLG0hbfo3w+9H6SGP9nEJy7c7PFBqLT6lkXJlByQkJnnTNcHGz6vz6EN85u5hv46CENvHC1zz+7ZnEGkGrZOVaEu/ppMY0o6+iHWj5LWZCxa/e1FSJeBca9TciR2sBs6Vu+fyLo+UQr7XU9Ae9rfvz/w4sWf08WBf/v6nzjfn1kXoZSBfa+DXUIIkCNJEiF2XFw8VRLfxZHj8shvfvPPhBD4wasvkO8/8vA4Ipc7htARiiCujRWkJiCQQkmFaZzY7VypUotbuRTt0aj8Myx3kapVDkRSnskl26g2G0wjBUK2xEloTFigOP7H+3ws5rPP0w6pJ3zV8MboGTE/SAbDc4Iu0A86ZzAlnVgr0nruPS7w3p9cs6IKGddZs659H+qFLrmA0eWdlu/qKa6aUqcRW4JBIbuqqCB6PnK2MdCtglhsYQpVxoaGQb3tsUaRAchSeVUEFZMLfjHU1huNIFDSSglRpyRWC+5QDuNVuQZUUboJpVofh4DzPJNz4bAf9PNZgmEaV/pe20n3+53WIbIYtaO01KPBCnUo6oazQTzQzUkJur4n2Nxujak0zdlJj8iMxML5NPH2XeHViy/4qyj88pf/wv35zNgdieGCru/xKVslB9ayIjFw2D9hSSP5amB8PPOrX/6CEAKfv/yM/PaOx8eRLHv2gyCJylxtiTkNhvXwFRqVJyAYhaQ0lrV75t4+TwyBhcI8jYRwQQy+v1BWD6Y9VaJglmoMNWmTTC+4pXOph9E/p0Ps0GkrQkpQylJT8D62QGtQ3jUo1agVN8Ki6ps5qZHR2Gs74qF8+r6l4A1kXs/DSIs6ai23GAcTUy+ovI5kfVasH4SWozXv4IG3uzm8bYzKADVfVpk8EkipsCyLzQOxeMagVjAquxbGvG3S7JHdWHFMXDCuvp6IbXuq5uFXbeyyQlKIWnk+HY8q+tB3eJ3kfJ40IaAJfoUq7r7rZkr7vd1oFJapS7dKL9azHYLWSgKM08p5hKdPb3l684TT45HzODEMeyiq0FdyqnApo7h4sEIinVDWM+/efaDfX/Li+TPKvHA6T0jU7FgxN+aDMqVo+2zsOkt162GLpqBYD/jm8FA7PBtdqEqgChqQW4zo8Rd+hmxhAoIXB31qlPeibFuI6x9EWGed5KTp/sbl0uSUZx4xtvZm3w1dqGirZ/fMUJjRitbLQtkWRb0o3GJqPWd21jwpFTvrpPUz4M19i8Etiz01Q2BdbvVBvdNN3XQpYvQNjyiCbpJHBRIgrzbWC5xT5IPs26w5X0HxFaFg2qmpvb6gG+aynS3oEvp+4HDY2efSSnIIsD/sCXFHShoYp3VlmkfW5OOQM2IeQTdeqQmhWrNUL3brk/C+iuTQVuGY6EHr+4H9RceSFr5/d+Lyyef89V/9z1zur5jGQkmBsmaWJbNawiCEjrUEuv6SfafzHp88vSSEB77+7//IH99+x83zG666nvPjqGnQuk9mlyWSLNnhh7TONLcP2rxN0c8cikFW88oS2e0vCM4Fk2CeqmnTrstidHI3GA6rLBISO46i3afuVXwyl9T0f2BdC4jSP/QjFjNAdu7ciBXMq7guWlfjVrFn8+/J1kagd0twUfMG1/W9PblUSFag1M+wLBPLpMRWldhNVXXfQZJ5BBtMqcfVgjQnwBXlb2Xq36vvcCp2zsSup9/1VOKcNGPibi7nUg981djV41kXEsQoDYV1npWxaZhTD71pZ9UF0w0bdju6rrWfikQOu17Fpj0496yNt32Kz4OYrTDo1HFzteZ6neBXJKtVF103iYHdMLA/dCzrwu+/O9MPt/z0J/8jsezIBC4vr9n1OwKRddGAdVkW1iR0oaePGgFdP7sgdg988/U/8t3b73n68parbmB6OHM6jaRM1bV1D5yLj7EL5qUtKVIZvGZFg08AKzhdqDjUMFyP6DrGMCgUQzNLYvGdJi6NbWtzOqSm8gvJPLtBDv16zgYzdZz3Om8yXTgbwlXxM8iKlITXT5z8qtDOqS9SjVg1tnYic/EAXi8jdu488qQEKJ2+uii/UDOVHS6aEEphnZO1kQNVMxa3/Haypdi/KbGrC70RvDwe0MUpWWr7ohdd9BpbFqKaslAPqFX48dbLGKOqYXhAXdSFdxtNpuIu1q1ojZ1ytYo5bzIoUuj3OyQqX0fFDsQWQuxweY49WOHSM3r+HG2illIQjPJg3xXskvZ95HDRsaaR7757ZL+/5i9+/BcsU+G4RC6unrMbDpQSmKeVZV6Z54V1iVxdH4gidIcLbl9eE7t7vv76/+GP777n9sVTDt3AeDwxjhNrLqQselnwNGmobbOUVGWVHLFUlm/GFt7Zw36QLYWbvcUhk8sCaAC/rl4MNqY1scIwMWNTsBEXMYDFQI4cIEOwMWd5tpKBGyy0GU8wynpn+7fi0wY8++Ro36EbnhXdohgx8YpcKHk17+TB26fxSslKTOyHnjVlzqeR2AVSSQxDRyATahUxlPqhxd7AXVP9cFYzcfq5fnM2fk0wqRjP27vLSbRKekaIeMtl6IxzVK1FK6UH2zjVkjLuTdKMhg7i0aqzUxm8mSpnDbiKYCRJoASCdHVxFNn5BTD+EWLi2HXa4DZM2jyPZfcqWdM8nvF7hkNkKQt/+OORi8srfvD5l9y9e2TJkf3Fc/b7J2poSocUYRkLpIEYtQYwHPY8fXalnuSbX/D9h+958fKW24tL5uPE+Xw2WCGQ1ZDknJGoxiEZxFL6iVT4CA5h/HprQsLZ11owdGiDqQ8aSF5ns+RmnaNWpf9UwE/5ax2Ix4DB/kmIEtnt9/T9YFtcakzXxUBAM2frmtthrrGqt2BoxtLtb4sjjZZvtBvN3DWkUOmCbIzFZns1G7uQ00wXV373u285rol9P9AJmPt1oqJ1k1nWal0TJa3WY2FY1LGhR/Z+eZw97rcesUPszTYW9Ga7KDlbr3VQ61VxppMcQ314isMv9QzJcwa1E7Fhb+wSaNpZ6c85Z/peNEGR0+bguKi0r5hxxSjGrvWsnmXqRL1ItgyIc5n01QJDvyPIwnheePu98OLlLeN55Ps/fM8PvvySw8Uz5TuVlZwX1jKT5keiCMfzqBftYuCmHDg+3PHNL/9f1pT44rMviO+Eu+OJEWG/65EYyau29B5kQETrUGo0kj1SiykVhuTqBbPXkKINQMrCWhKmTwNFDdhut8OlVMU60CRE+s43WomSakdSK4Aj1Sur0EOpqXmvnzjZtEiA7AZaGtrGz5bosxk08xQtbBCKx18C0ZIZac21c9Gh+DbDJkWTJiFEdvue3V6HKJ3nhRIC8edfvX7jD+j1DA+elWqggapP6HHr44dGnArhDxP8ARxuWb3Bfi5XayUsc2JZVGtrc53rH4phWNV92gT2tjDqzUK9QGJewpNy3o+8Livj6UzfDfUNnP5eaoVXqF109uxqcL1PgRpc6shq97jeOKZvGiQSQ0FCYZ5XSi68fPmE0/3I+7t7Dk+u2e8v6fuegpBDZ5f5TE4r0zQR+0DoI/tdYDrf8/b7D4h0vPr8FUPX8/jxkUQm9J0eZBsiKhFrWwg1GaTkQ4v3CvhQHb/2SuaL9aC6R67rWArB+oD0TFoF2wrA85JMZSVXiVSK19Ii5ETKWen90FQcjQKfbdKt2Fo7UtRtcEDVoLo4NKz2sjhWrxBT++o+VbR3NF7rMXiVxmWKVJKpjz03Ty/Z7y4REvH1V1+9WdOqKtx9qGfU45EQO3Op1DxzKxQama4yPTMQTalPiMFcsqnx5bKZ02c5d92IqCJn0dLCHnDU9KsefifYVakXHB4Y+Q2/4G7ZFar5v8doc97tEuhK+fe7dxIkdNUDtvkaHfO8Mk8r/bBZD5fSdGq9L77VLU5nlU169fKWh/sH3r19y8XlNUF0lDUSkNLThULsV3JaWJbENCViFxj6TCon3r37wJLg+uaGQ+wYTwvjshD7QD/oRdHMou2gQymhxlW6V54utdqC6Jiy8TwZnPXA3gUgSjVApRigbPaAeZ6pA1ux7JAHu8GDBjWtnbUQeJo1WPOVKy4WN4y1594vyWY+Y9FYMNjrBm/7rghFEwgKszxe9LSv3RenyIPFpPrnXDLrWgjhQBBY5tVQA1RiXPugVosoPq/BsxP6u2Wjki60B7hFIZnnyfRBQ+XiVHnLoqzS3e5AsbSbewX12nbTxYTRDFN5k0tOqcYOroflxMqKN0W1sXQY5gVe3KrYuXhe3JGuxzGrjYNzLSp1/TqJdjZ8bptp8E7PkFXi1SowDJF+F3g8TkxL4sc//gEXu4HffvsrHs8nQhyUZRB7hv6W3XDF/vKCKIXpeNQJuyGwu+yIwyPf/u4X/PvX/ww74csvX3IBnO6PTLMGvsXiBk34b8QKcgGJWB9QE+PDirOmZONW1n/pkQs17lIhA23HBWXcDn1vI9XUo+rhzzVOFdGu0c4kSWuF3OpLgo2I89ixKK9Ol9d74zdBhMUZfoM85myBus1AtOfXUDG2y+D7U0ptsAs1U6eJh2mamKaJlAvxZ1999SaGznBo2HgJ2SxTsyDOHvXvc1q03lAlKnadChJ4wFfcLTq8sXiiOgoL/HIpFCMv6hpkKFojIVBZp/O8UBBi73n/KkpJyy81BkBtrtkEcq3XoLSfKEXZt9bVpxmiXuGLeQZtDxZjrUp9lhYDOXxRL9aZZzmfE7t+4MWrK8bHkY8f39PtdsS4R8hEBkQyOVqtRAqxV1GHiDAMAWTi+HjP/f3E5fUNz29vWceV43EkRaN0hFClQLMd8BqiWbFXzOPpRVYyZhcjElXa1ffejVa9NEX4VNGfypvSM7L16mLUFgs5fHnQy1tqWnLrdRty8uKwe5mGwBvsKqghDSKmt7VWT7Ntk1AH4xcsmlfEUA5W9G3yqM1CFOLPXv/sTXv+0vLOsglmzMKGCiO26hU68L6AdpPZofQLRc2ASf20IkZibH5UadBmUZSrn+tn0IuxGbcsyh9rHWClvs/m6VB1EH/vwlZB3D9n61H3opvhb8cShmtBWa593ytXCfDuR4VjXlwL7fzIRvamFM7nhb7f8fLVNSVl3r/9AL2w3x00e0MhdiuEYHCn57Dv2e8666kW+iFzfPzI27cf2R0uePniBSEVzqeRRKGLUb2H6YPVLsLg619Nnnpeo89IDFYUtfWyXx4z6iNtalW2nmzoR86dciXG2iZbX7OCW/v3rRSUbC4BeAehs6GrPI198uyf27yk2gSxC6PxvrMkSkkO2tyU658t0TaNNl3L1fT9/AenmrgNLdkU3vVhKe1ABfGcth9EJ6dh7aBC7HubqFp8aRtmpfU0UBfECZFmscTpCEabCKIHQ5p2L+4+0ezUFgK07JvgPVE+jcm9iS9ADeoQ6kjjzSaqMdGMTylulbKR5WBdEikLKjTZgl4sGqiXX99Ye1pyZhwTIh0vX17RhY63f/yOKU10w149l1Xs94eBZRX6ncLH83EkDqpMOQzC6fEjHz48EPoDL1++ZBDh/DAyF+tdF6k8OKWnuAV1sl7nYJnKovaCD+ptlJYj5sk9FowEh/sGwjyOq9DHPXm1F/q6Kbc0uV9c9x6OTuqsS2eZb5gVocajjkQ2mUW/WFCfv91z/zyxnWnRhq2cC6fjkYJy70qmTlITKUrfcsvgH2jb7+vFFaq1dazpadnQpHayV+MDEjojH1rPRl1MPXdpsZQhSnxzN+pZtBjdorSguoqr2eBMwRuevPClFdOcknWNuQ4TNcD3C+rzIfTga2uxs1B0O3L1IPq+mYz2QJQcbBDNGS1KebxmlA7zGsXT0qicaj9EYoSHh5H3H0aev3zKX/7kR6Rx5u2HP7JmYVk7Uu6g7Iw4OpBzR556dt0BcqQbdjx/caCU7/nmV/+Vf//Vv9JdDHz+6jlxTpwfzyxeMM2QSqp4u5IaAyBGFSpF53kS9BARoMSK7Rs+ChskQPUelTHru1WEQtJCnbGBNVulMLCxJtwYFipDQzwNHXHx6VA5gW6U2yWpDW+OUszjOBLSZ3bvgRoqUUOBaDPdbrfTuZai9BiHd6XUGYXNdbUskuPu5DbRDIW3gVrDiwh9F60eYR+03vmKoDaiZ+AzqbvOFsGtv5oudGho+JOcda4P7JT4anXsO8S4RGlVi+fxkYMKzaapldrSVJzBW/FtcItjP1ug8caktu1qd55dPtsIl9wHVNzanltfM1TrtsyZ4+PCk+sLnj694f79Hcfzka7fV9gYO12PGCNX15e8fHlDWjNzgsPlnqEX5vnIx7sPnM4L17fPuH1ywXQ6My0r0on1w+hztCYqtY6O0QtirA+HK5uYQvSWKXrUZI3CHjukwUUTzIduNAMafNJ17oeBvo8GJ5u3VmVH3+tQD5FzqfQVG3HSkwmV1iJqfFt80hIneibaWQWHUb62Yqr/nR17MXinhjR+9dVXb2pgW9ri4akwC3AqIvFTXqFIJou0rFKIitnt5z9J4xXX5DUlvOAFwRZaB2vFdS/li+KXp+Fh/4xbFqe7zp4YxA51u1h2O+37bThmcS9TqtZT1fo1C1bscOlR10Pu1JjGb9INXlMhr6u2+VZaik668NFsQZRcOc8L05i5eXrJ9fUTHu+PPD7eW/+HQpzpvBC6HukjK4F91zGPq7bERk3RpjJyf/eeh/uRm2cvuH36lPHxzHmckM4SDtJt1qpupMnzuAyn1ptqwlV88RV+uaJ/VUe0ekQVkbZxaW7xtT6iP9+EsnOlmTsM9bpYcdMqZqidYeEhTVbD1+pWroZi2TDvMQ8eI3l7g7TYAmj1Lv9Z/6M9d2geKn711es32arWUqFB/VnrD7cPXE+qb/zmYtkN1Wd3b6MPq6m9bLRi7xbDmpAsH29BkyuZi6lreOHLN4Dte4rxkTAdWwqYkopaoPbcIps4wYmI7ubF0tYeqPvP+LNIez7wzFyuFif74odAWidtvOm6tsnmgTx/LxZXxU4hwjhqyvv5ixvm08zjw5EYtTA5zyvDoMXB778fefH8hieHHvoeko5C2PcBysrx8Z6HxzMXN894dnvNOq6cx1H3zwTCMeFs3cumMpJzZllmZTXYw7tF11WzelKUVnkPNV+HeBsrovFL0aOXDGaJBErKG3EF8y6+d34RxYt22YiH5ZNg3G93KZkYou7Z5hLrwSioxzFDrtjdmv6oPEB9HafWZENGBZ0PbaM0vvrqqzeZjJRoAVXjQ30i2CVl0xjfzla9Tr7YpT2rf4zxrEMjo6f3gFrFjjp2DdEq6rIsFGvv9EvgAdvWo4RArdr7HLxmef7U83gc0zan/rbvWRdNEaq3SxCibaAFJnbYi62HPqtuhhpCGxoahNDZ4ase2Vw7rUbS+k8ya8qM50SMgdvnN+Rl4f7jI9Jp3/l0TlxcDuz3HfNUkK7j+DizvxwQCVw+ecJuCJSSmM4PvH13x+WTG168uEWmleNp0sp78OSIw13F/D7aO6dE6HrbHz3AtVBI1uyP6H4WxOaw5Bq3Vc9b+Xj69RBMVzh4Mk0NlPhps0JzQC+fj4rDDJRrWG2Nrp+8XI2e1Iq8ewufIaP3z8+1t3VQz7lIy3rFGFjWRElZ0/wOe1wBpB20XI+RQroNOxTNLhXENtvSrdkfXr/umC975TS6uxe8OioSdVqrCbh1USVuih3MJrNfEBNYc46VK25oUz9IbcIXnIVbyy/FC4t1WaoPDEHnmwehflaxJISrpHju3Os/gljOIdjGlPoZg/iIumJ8o4SKS1gw611uiLJJ+wCx8HicOR4TL1+95OWLz5hOMI0TqST6/YGb2wseH8+Mqz5rWoV5isRuoMSBHDsubyPT+Dv+5b/93/z2j7/l+sU1L5/dUMaF8+lsLcRqSp2QWlC9qN3eh/xY6qb4KDOjmVsqeJoXkhVuc/Z9clKq/lYIXepBdNa2Nm214qxfvIJC7pxWpvNZrbldhjVl0pqqHtd/SArYZfb4CLusns5tVlUqQqr7aIY8RpdTFdsrZRzH169/9iZap5/DEEUqn7q8VtTx7ynuUakBsnm5ebJZ0+ZOYhAbwmODPoPBKE9EC2aNxC6SZ5jstU2rqgZm4rAGJcdlnS6bmwfeeJsWjOrCCbVj0myQW5+CGQkRmm6rXydfZ/+6Mwfcizj8asxTH/4iwQ+OJjKc6KDrpyok0TZvGmdyEZ7eXNHHjsf7ezIjKSmPadf39CHQx56h77i42NnQ0455TOz2Ow67wPHxPe/evycl4fnLF1z2A+fHM9O6aJ3lk3gLSghGGdLPprGgi2OY7XXrXWAYtHc8pYRE6x0RT7NDqMohW7Kk4dbiMZln+cCzazlpprDve1zTSuPbQLNwntTxjVVonNJiCR7bd084OdypdZSWiNKYUglgsQr0aUsyIdBJEJY1VzExhSimbeT30x5cMz0aiNWDU/weZz+Zag8cZ5JNakVIaWFdE72YCFnRAxm7rlohgJL8AGsArYfI6iiG5RWbUg90vVB2+HWDGq3AkTL2yjrNVBMEOakL1sDyT17LAKvrBovYppXVqtuin81y7A5HwNt79WClrOvi2N3LyyWtJl2jcKeIj4XL3NzcEgN8+7tf8fH0kTUVnj69YlkzQ9exLhMh9qQV9lcXvCRzfFh4cqtNa3cfj/z6239kWkZ+/KOf8vnnz3n73QfGhzM82akGlwTIq/oRvwAWEzTvoLFdERUHPxzUk6/rgviATvEiYySXtZoV9xYed2rq1rpErX2gmIcX6egGTbcqalZPFEXT5H4pUnaavhlhO/gar9raF6nqmJXtjSMIvTwav/gZyjpZrUDoHHYV4s9ev34zns+AMM/TfzgkOnxToZErXBRxaOXvaLdTlC4QnBSYHR752GJv7umQYA364je5wR7fILFszzKvrKv2TqvV1otIzqherRavYizt49hC1Rx4DSDdA3jCoBWrPGvVAizzOJ63F7d0lnkLjqJdT9i4ZH4dNy68Xk9p/C9lsxqL1msmQTlT87wyL4XrmysOux3j45Hz6ciaNWt4uLnk/DipCEJOrClwdX1BiCosvSI8uRhIeeLh4QN3d2eub2+5vbkhT4nzOOkBiVFRuQRqPjGYUSnZOEqh0nOWZbHs3WqfPW6eJ1JK2uBay1I6LK4sA/93nUWOrVfNckbwAT9aDtD3XVZjCpjR8pnrwYL6rf5ZPUa2D7W7QRxZBIXkFkpgryF2ydQ2ZLpohDMN1BR3YVx6L/ZkcUtuvSLFmbtNw7YJA3h538loAc0KFBUfSKvOh6NoMxNiskNb2LZh3OLxULbLmNXD2IaBNuooftXUad83ekepiQUvGJqnC3hAVXGZFx8R950FRAPRSnhjtbeOkI3tam2lOtJA2Qh5U6iyXcTi8/qWIhpzFbz3Wj1J7AVKzzgufPw4cXPzjJ/8pOfXv/6Gj3cfiacHlSXa6fxISRpchhK4ubqkj8UIkImlQP945MOHr/mnfxr5yU/+J169ekZ/3/Hh/pFUhIvDYClpBzwGpSsnTi15zrAss0Fi3yFtIQ6Vy2R1H7xNwZwsPv78xTsAACAASURBVLu+Ffsyrv1s7dRpxeeEQFbpUVM0KWnWOKRTo6bxordb+Lnb1MfMuGnWqE3EKhbAi6xq2PC6VdMtrpBcIP78H/7hTd/3dH006647WIOkEI2taRfQr6Z+TDyj4K6rNobQctR++MgKn+Y1kerkn6aB5K+jm+L0Di2UxS4ajcUsQgwevrCumXXVBvxpnOn7wWos5g2Kj2uAIqk2m7XF0g0JMRJDm+5UN3Oz8O5h/I/bAS/TNNrnDZvXFQrREhMOwTwfr8+3rjp22EcMFMPvIRaWNTONmf3hkqfPbkjzwt27D9x/uCPEwFoShIH9YWB6GIm7HkVsHWXNnObE4WJgPxSOxw+8e/+BRM+z58/YdwPjcWRaZjCVFiSakXVJn82hCVbAjL3hf/V8JSdcm1kvVjGUUMx4tjgBnBDrhFfBEzv+XgRNBoghA708iRh7ut6SPqLqNoBN93LKvdTP7kiB4JkrZ4Bg6jrb+DTjvUZVnxkh/v3/8vdvYo1sze1nx4ulHtY/7bPQsx+q1W205FYlrR9yA6Ny0UzFk+tLnj57Qjblkv0+mmZTg1n6Hm7RAikr5o0uK1S0J3tZZ9bV1c834szYLSjZ4qYGc2oOgJZsUBG7raixeoJ5bhI4/mxuEtQTBIMXbUZj8x7+I2bFDGK5NWvCeDabr1aevVeisK5KdNztDrx4cUPfR+4+vufx8YFMYtj1xGHg++8+Mk2J03nVeOVqTwyRy6tL+l2HsDCe7/nw/h3TlLh9dsv1kwvW08g0r+TajmDZO0+8tMNBNHjcGqsCPove6RkaXBdWE71e5plUU7ebwq4nOOqfpW6OCM372F73Q7dZe11fTSHTkiyWE1Nj1Dz/BnDhKXknlgYXuKgxmFRjGP+P//1/exM7T70Z5HA+UdnYdRFKCRvcrRbE9VarSd6cwDbTwT+gfvjdbkD6yG7fsc6z9nIPOwo6HNRfpqVrvXOvCSuczyMp62VQqKISlm0qk6er20X4ZJxDEWolVrR+Mi+JZV4Ilr7VC5JJScULfNCjx2eVRmFeIXZbSVQ/BP7sa6utVJkavSwxuleMrMtiB1G3OYjQdcJaVqZxAXpevnrO1eWex4c7Hu/vWZeFICtzKdzeXtMFpbkcDj1pSeyu9nz8uHBxMdB3AcrI3f17Hh8nLp9c8+zZM9K4cj5PBp9a01O1nUXw+YmaYNkYABxyY4c2MC8z8zgxDDvlryHGw6KNwwxqWJVEHCr8rfYl6OUTi83A0spsz4fg0kKlMnhj1fP1rteCe+xGerVPC6FV09XTGB+NQvwv/9f/+SZ2nfWE6w3TNoCaw6Ja3norzZp0Qog+pVUV6xpRbwOtttY26OyH6aSttikncoJpWljm+f8nqNPLGurXzOWuKzEEYmdz6oIuhtYcaFN4KzvZjYRbbnX6aW2B6DrPlJIYepOfLNny473ZC93ZEJWEWZtZdOssJJLNmm2aqVBLlevz+TYn2xjdxHEcEfMmmAKLwjZdy/O4Mk+R5y+e8/TpDePpxN3Hj0zTmT4WusMADAwiUFa+/fV7igh5zsQ+cHhywc3VQEojDw8f+PDxga4/8OLFc2LKnI4zKzplKdRnVkgSgtg0q9AyRu41/XG0cadmZLuht45ME4UIkFdti1U+n65BU5Nx3p4XfbH4olFPHL6KUbaLJ1DQAqR+thbP6qWz5IqxJcT4fmChd9gwBkKxZ4P4s/9s/SBeaRShxRHNlW1dmzuNyur9k0tE1WDyl7RqZxFKXpUqvmin23Re9WCmbBmw0D6Gea72WVoxM8aOrovWKJPRRp9CyZaRSYseyhDsa4WmGOkWSAUc/IJ1sSNU8WTLMNXvc49hy+jxQmmfNZdiaW+FRh7ThaADbnLJrIspq8t2TfXnlWkgNjxG1ch91nw0za4YI+M0Mo1wfX3D8+c3UDLn4yPTeeR8mghDx83tFbuhJ0jmdJq4uDiQZ2GaC7vDwDwtwMqyPPLx/QdC3PH8xS29dJweR9ZSCNGo8gWN6QTG01kPfhfr5XF0UJEHxeK5zu6MWHzjyRK7KZUBEe1rVEiv888TOTcyY2vI0rqZavEq2yHYbPRQL5JnKR3UGNwvAaGry16kUJJenCbkAY5A4v/693//Rgd1dhtIVV9288vBltTMhXqqgNdJaoaoUA9jS6V63OKnE+3JRuj7QOyj4d8NBncAbC4xOAzEBbdL26TiB1+qtQs1ueBBc10t/EKLdSlS/yzaUmtD7hVB2fsLLGtinhe6TgPVbFBq2y/vOHxZ1CtrvUSDcSXb/cmqmsVD0M4+6+RTTlkrqokEQqcC2tOycD5mdsMlr14+p4uRx+MDy3TWglnsWFLHyxdPSEtif3ng1RdP2XWFddaZk10X6TtY1xPff/eWKQkvPnvFk92O08OJeU3aGWr7ICYUp3AT8/auhuPp64rJKGAGTGONaVx0BmCnSiJV1keCzrB0dGAyrTkvkLPOa2SLIPQtdFakQluVbMp0UflfzgY3OOPHEi9HuDfy4xBNjtXrih4Hx5///Ks3setxt9Bcv7+kbA6VH3y7KhKM5m5W1WFRJea12XN6ToNBSy/tu+v9UzwLIp1RSTzViF42aWxOT+f5a7YTTQ22aropbJ/KszN+WEu9iFX/SdDKMlQY5QoppRTTBdbX9qBTxduKOdHIeJ6Yl4Vht2caz6xrZn8Y8KKaFyrb5mUj+lmfdYVs1DUJaG0oBGFdV86nldBd8OLVSy72O47HO+7uHsmLDjva7S95er3n/dt75lSYTgt9BzlHiAPXNzuCwDwdefvdd8xL4fmrlzw5HJjOI+OaIIjxzHT+Yqg3XKF1nXEvTj3x5yk0gmFgnqZ6oIsnevz5i5MS7WGLwzr1LjquIGwMrxpkF82bxkl1hru+xh8t4+oZs80Rqa0U2fqWvCzhv8xT/cN/+fmbav0QWtZog26C/4Djdc3ZO/zQW7rNLtgHDKDpXqcGtAxX+4CGITE3i1CLkJtGrgrT/HeFS/73LcyzDRQrFtaLLnidRl8nby6aS+P7ooa6AFKfSWn6w2BzR7Cgz5/cMbsUTY3bpgy7nRb5UmJ32GuQ7thMrM5jMRbFhrkUfcFWm7FKTkk6IiCoNyFk5mlhmYTrm2tub68Yzyce7+6Z55lxWuj3PePjyq7vOJ9nhss9gcw4J1LuYdjx8vkFaRn5w+//wHmauXl2y83NNctxYpqT0uYd/lZP7t63pXc1IadIoPa0FzWWIYqxnP0g2j4Ga4MVayvw1u7grRdSvbPdJrz3RtPCevxiVCRS8BS7n8hgWUyHeBZfixdIS2Uce2dyQY1n/Nnrn78ptRWyXYwinhGQSpmgFhMdam0JX5tbqWecXCzVFyOQKO2n2gGx7jFEmbCl2OHCgjDxlKNZpAKIezrDtSI4Jb5dUoN34uledy1sFs+xrd0ny3JomsZhTysa1g5F2cydqIG49w+21+yGjr7TLsLVFOGHoTM6f03VVG+mainemrw1Nhh0a3FdFheVEJZl5uHhyP3dwrMXn/GDz14wzzP39x9Z5oV5Wdlf7Lm5PbCMK7th4PJqQGKAFaTrubjYcbgcIE18eP89H+9OXF7fcHtzTTrPTMtcIagbDD1g3uJrReRaXHQDJ3YeSu0DcoZFe0a/VG4sMYOYfcvsNX2vWsZM9znTxU49E4Wa2jcPXyxDs2VV++uVzYXftO3bswnx9Vev39RonmwORDGz+AMUi/zdE3hRxi+LvWibm61v6+RExZBt2xV+YUFXqFAjl0JedcGXSccWRHfbhGpltmCp5QTz9nhWV+p07Optqvtt36iXXJ9LZWSsaFeg0qTNs6oS0pY1zMZbaq88pZDLWmn4Ba9sD/YeK9XblWbtauFsW0Ypvq6WiTNDEURxsxRY5omUZqZ5Ja0du90lT59esxsGTo+PnE9nSimsKbOkhU461jmR1sSz2wvysrIuQuw7Dlc7JI/c3X3gw4cHdhdPePHsGXleOY0TKadPafOiiQn3CB5DqiN1OE6N0SrO32Jv4ZPMkyd9FGrq9wav0EtBKsTe4DEz6GRXQ7CLuVnIxg80NFThmjsGvUCVCEkgvv5Ks1itMcg2zV+4tDfxeXZl87Z+gZyeIk5BsUyEDtD0m+2ewKfiOsWiWSQ/5Ms0a9ecsXRDcCtqaVGv4hbzBKLiCopMmlfw7w0ueSNNQsb/0LrovCDqvSDuWhq0qJ560x8dN8XBZq3077lkS2kKUlzHyYbU1btunK+ApUw1hVytIbjfp2mQ6Z7FoKn2ru/ohkjKK6dzQtjx6vPPOOwGzqczp+OJVFYyM1PSZMA6J+YV+gDjuLCuILFnv4/shsLD3Qfu7o7s9nuev3hOWTLn80ToNb2OIQs3MFvVEaeVNMPUrPXGOtl5siY3g9iNy7atuZhprT+7WRc2tZW69X4Z/POF+nn8HIsVO/XPnhwBz8CWAl39wIbDoVivhzMgm+5RsQxAyUUn8WyIelV3qlr5YtavAhSaskazN22cseHQqMMTZb8ndFiK1tpj/RgLhJDJxarXjiWDqFRq2aSKzQvokntvvXs+m5VRRL2ZtBpFrlaxeT/lyoQNhPCLK8zzqpXwADnr2jhlRRXkZ3zik+sTFwkWlHvRstiyNfha/WDywZyJ1vWo0jf7/Y6BgX3KzNPIsqrOb86F69sv+Onhgt//9rfcH9+xponp/AEpmWfPbkjTiux3rGmkC5c8vdjx/n7l1Z/fMHS/492HO77++hesqfCDz36AkHk8qZj1bj9A6My0ZPMm0ro7/RBbPIULM9C+7C6lyDaea2PXNKtkjWrBz435mOB/s6NlHsI/i6r2qwFXAxnbGbUzJ2AZ2ULnlf6KnKwfRPzGV5xuwdZ/cIX2wKaXS3ESIw2vbyCQfvlTTyR2cpuUziZY9qlSWD3EnZNdOqkvFM3T5Woxcip2GZt/qwfcA3qrEFaLVy+zO7dNAF/YPIt+RjfmjTUqlq8vjOezUrO7aBi41M9W9YSlq2vqijBS4YVdQPvMukwWd4StxwbteKR6bfXEWKXe4i4pTOPMPMLhcMmzZ8+IYWAZT5yPD9qKC5SQkb6jHwK7fs/lQfj22/dcf/6K3S6oru70yMeP9xAGXjx/jiwr47QS+kjfu2phrvBQHC7ZHn0i9F2PirSYz3asiIqab7tCAcS1e60WU3l1hXap6h63fdPqf/t7g100KGuevR5Stt8P8Wdf/exNe+FSM1ZbL6iuzbMDcXv8P9k2jcw/sQ/1v1ItcftvvalsWbe+iC2z5jUUD4RtNSvMybmotnCnRSidCmsXxcvmWT+fZy+aYob9uTays9k4TblWMp1sNk5a+62I9hzErtH8/fubJxbD4KVegKoNVSGheoRS10Xskm3gXl0PZyerEdLYKJkFLyYqAcu6cj4vFCLXV9fc3NwQJXA+nTjeH62bMxM7Ydj35DLz7t2RXR+ZpkRKwtX1jmU+8v79e5CBFy9f0ktQNfp+IHZxU3doF9//1/W03Dtr4kdhlx78QilbCOQe0s6KdMZ8MMJjUQOg65krZPWuRb+ItR26Zq6ywalgsXpjS9Q6gBlK7Ih1fkjrJKnt5oTSaFlkVdYPXhR0XNlyAQ4L3CY4Jf5PVSSsStQuhzq69mC2OO5CKQqRSikqPuC1geLvKfS9Wk+trqb2OWoa2OEj1kDjOadCI1M2z9Du/FbVvrTLaYchZ00v7g8Hu1A+XURMJ8y8bMmmDVV3gRAD8zSjowQipURLSPhm2uAgD/TN4fmosRC2qh2leqtIIIsQez2My6x96eMYubm+4Yc/esLVzTO+/fYb7o93rIsW2TKBGFSOKYwLRYTryxv2l8I4zRSZ+f3vvybGjs9evKK7f+Tj249cXF/w5MlB1RwzxibWxwyhs4urs0vSUoidx2uWwcQFE2JtQ/jUzK6foDWHai7O4H3u2ek/1ROYQbL1M4uru56LTj0WyF3XzqnDOdtDkzE3WEXQaEegNuPbhijHSSBnw4te6dYZcWqV9cOJXb/GjNQLoLhwm3XK9ZC7ap4efMPfDs/cVBLq1xytiliRMHTqvDyt58odlgkuNk4tSKSElVyUWSwGTyrMdCyNW/9Q23yxwypRaOlZqHi3YM9nnXjZ4gWROibNfwXRj7imlVgK9BFnIIcK9QwRS+OzgRPwWh+DHwltwNJn0RpVYOiVprLElWVaeP9xZb/bc/P0h/z1k2t++fW/8fvff8s8Lazzws3tgduXl9w8u+L4cebm9oKcC5e7Ky6fBJZx5Pvvv2ZdZp5d3zJ9eODu7UjfvWDXx1podYRQcmY8zwxDp582r3SywylKbpDEFB/XNSFEq7l4sJyoI+VKG2Xt8UIwMZAoNtHY+mPcULX6m/7Z75AnV3TdcjV8Pl9eBCOlWH1d/NoZx8p1ZT2tGaJULhSiNItAo3SkbDjS059SKD78Ulr+XAwjV8OePfNlQZTJhXo8kc1ibv2Ny77YbSSTIHf1vcxY4Aobdb66ewqnDlUL7DeRmona0lcojcvlr9Fbhs0xdimpQkWlhwjFs2aVcJkpku2QizKbcRVD2wfPiFkKvBqFipUVXmZrFQ3WZ0FJDrxoUYv2pxRRLa91WThPI/PbxNObS/7TX/4tt0+f88fvfsvdxw+sy8zVbaDbBR6PKw/jiU72XOwPrCGBHMgP7/nDd9+Qs3Dz5AnlYeT8OCFXO0LoCQX18haXu8BbjBEZFFKKD9QRryMZksnqaSUM1TaayajQTGxEucdeOSvTedjtcOHzUizREhzqCtRWYEun653VRE2VqHVPrXsRX7/+6k2xUxFCAFe522BcHPMG38CICxUo959KZVYMH3FsprKb2431A9n+V2iXQZfEaPWeRnSY4otkcUUI2iyVLMOzqXDgbOCcjJBoaeWUlDDoInFSPQO4Vpa/hup4mUSPfXYxiKZdhJFpmlmW1YZetoqsP6bhU39FhRI1YC38f229a5MkSXIkpuYekVlV3bMPYEHi7kDgeITwIeQH/v/fQiF5QgB34GIfM9PTVZkR7sYPqmoetcK528VOd1VmhLs91MzUzLa+q5POWRp7UT6rA/RVQPO2Vqix53KWYsV++nnI22vgW+8sMJ5j4OP7A5k7fvu733FE0Jz4+cef8P2nn3E+D7QbP7ch8OXtjvf3Bx6PQzPZJo7HE6294re/+TVuW8fH80FiYixeT/SuvSBaUXGJPQzGr01nTMkbXvs4VhCdZdT4762xGP3xcWDbu9rFVxiw4rtVhLQoZhkdx5VSkLZKCBtCUbyt1tQSSMVMfilOGvF4G1oI1tIC5/GB3u8V/VvIedGXynBDDXlgpsUUYwgyWLglsDOZZQhZ4zn0DArUUvs/WlSFdsGytcohghNTotnaL8tRavmJYya71XA9UiDJD4okXh1z4jwP9oU76A+AvdaX+1Xw7S7K1jzmEvIEQO9mpq5YrjV6h4XI9VkwjLS385akBNqakm8vnWIsRzRk23Hb2T35fDzxy/t3PB4DX7++4D/8w/+EX/3mt/jP/9f/iV9+/o5zTLx+ecX+esP28oJXnHj84cRvfv0F34+JmA0fj5/xGG/43V//GvNPBz4+HugvZEZPTPTgSKHMyTXieugWuVLpzjoh1WqxrfFLihkiOtu/p9oNUvFe6+i94XbfsdYkrImZVg2+vzJu06wOoqVmKpMVyzcXic2yC7CSPU7ybnwJLgARWq5AcaZXC6yeDH6B4hGsCywBt+2LJlc6FZORauxmmIvrAkJUc08vWY+PyIZt23XYViwfBn+KZ8+9F5Fc5tI6g7Frppd35+9zgxYPu+IaJHJKwCW2+23HZtydidZ2ZHLL69QlOgvXtQOlvKDeb9s3LOLiSn2qDWgZHfOScPUqAS6aIUzL6WEYAVzrQTqbFOV864G439DbgfNx4McfDzweL/jVD3+Hf/zHN/zhj/8v/vDHf8Uf/vVPuL0d6Bt7Ys4TOCYV4OW14yMO/PL+I9qfA1+/vuH8+Ts+Pp64v3LvyDgn1G4BIxOEjYbgYDaYd1YyV4ZWHl4Zy951BpND4ebkbLHXvtEIDSdgYrXrOM7W51X2EcAiCFE20+wOMC7e4AsLEsWybVAy27qHgNdcWThpmaYyKfu+l62swg6U38caqkYo0lhRrqJCAydYTHgRjvEmhWFUEF3ExKlnDb7EeQ6Mc+J2J1PWlmjOKKrWeQyMaNjXkD5UQ87lH6cJs2ISvmtTdxvxMH9/zMn9ijMx5+lqDoW7N4TngNniN+8aHzqXuQRaRojxFz3rzCCWD/sQK5bhkyAi1qBvp3397CkY6WmKzvlHEP6QWT3wPAbeH+94Ph/4+uU3+Lu//y3+6q/+Gv/8L/8Z375/w59+/wdse8Ovf/cDIhp2QZCBgds28OOf/4jAhh++vOLnn37B8/GB9voCDHaE3m93IEaNT8rcyttC8qEHxPKk3grg5061kDhGZfs2Nxh765l7UgZW2hllLNJ3ecEGK4kE4y7Ycm4rk8S/ZyMMH4LxhNJx9V0+YAWOGJcNRkrVgb+Tlv9gJZgbh9i62i9FLuPJaqSZS8hbBDcfxQQmlQstat8hPG2xXpjPNQbdF3VdVc9UVSLp+daImiZna6Gz7b5WVZeAkv7ANtI5zwssaji1fo5BJqGMK7WORcy4WZ+LVbcBp234jjhLl1kVG6ZmdoJrRfHpavSBNm8WOP+gs4+eJbAhto5oA/vGHYw//vwdH48dv/7hd/hP/8NX/Ot//Wf827/9F3x//w7gQNte8OWHr+houO1Uzhknfvn+Dfv2Fb/6eseffv7AsXFyeuSaTFnwsLbxLmTheLOihYsjoUFl9s5ZxWhGJnMlAyLgxEaxf4NZxTXPbSnGtVDtVmgiD2Z1N6ZYTeWw9hjj84PmdNpsXh5cT19sXCrNGJSCbmaBvEDvHe1+szTowq2EEj4LTjhlymc4jwNyWWh9Y8PNsMWcXM7Z9HypIDXW3yd4UevMuc+vMljOqH3ChLhkzkwDWcE1kjyooUNqCpYbeBHvv3xDtIb762sFijQ6SnM7PtDANKelmxUhnMoEHDCyxiMsHROP5xOBDbc71z+bykLDIYHhDcIzrjLZUxNmSUPDFMSm7q3h43ni43Hg+YeBH354wX/77/4jXu83/Nf/8k/4/uef0W4PnHPi69sb3t5e8XwOHN8nbr8e+Pbzj/j1X/01fni746f3J/DScetrNI+nvy/4lxd2byuZqgygIJdlBBkVu9K7kvfHdu/lRY2A1h1fFWMxJlbGy4iHPMHMiTlObC3cOmkXR8tTw/+gjMI1S+S0sMazUOgoNM/HE21riBszyMzQaOJIbMg8VBPg9O7aGyJjMQUxmg8EiefzKeiT2II0FWNajtwfyyJDXgOutAJzMLszkXIkfmIV2rTbzhR8etRpPcDyrxI3FZ5Syk7nwkNtW8e2bTgPbX+Fp9qvkqpZbN6ORB3VOTSvTfCNGFMD3jGSoAfuJi3qp9N7xKMQdSkZnYafAzKAzhZN1WwCbdvw0hp6P/B8HPjzjyfennf85q//Dl++fMU//z//B/7w4+8x82e0nAicuH39gq9tx8yJ7893jD82/O1/8zf4OhLfHx+Yr69oLg94zZkJjLk8SAlwPaNsSRh2C5JiA3IonkIpXqjOVs7X8xCCUz27UseE4RucVVy1K3kvd8aimHgUOk8jnFozsOoZFKpm5VAQuPLyGhoc7KfeehNySsw86vpSGL6mcCPhtQgstBFORPW6M8Z5ud1wv214eXnBViN9xpLZXHvA/ayZU5VVKYMtWC733CLXO7tZquKOQNRgM12knonVcTZNKZFdcLQFt08hNtzuL5fEAaFbMXErxoEsKOEP78bfaQUhhnUdhcqf2Pcd+85ROJU10/uUvYv4/7lPKY0Kcb0DLdSbH/Qi277h9e0Vt5eO98cDv//DE7H9Gv/wj/8b/v2//wfMx8BPf/oJP/7pz/jpj3/Cge+IHfj69QuO5y/49v0Dr28veNkb6fg5iGa9wqLScILrLjzjqhw0oDMnPt7fiRrAWcYRNBttHWYpg40AqfeNG8eeJz18GUCNuVXs1opOtLJZ0QKbg+prM0nOielurWK+prIgDhkucEEvnJm43XbMkcq2Blq/2eZZmnGOsaa4S4OpTElqRzRgMlWakZrpRH1OcEx/CHYs4VsW3j3kFO4GFz5Zl1kwcRbQh1x3lOex4tcAPJMGG98zpN5ES71WgWUmPt6/43kM7DePAUrM5PDupvpOs+Igymsbbkzv0zCckpVi0ZVnPXNULDG9PwVhZIHogZYdMwfO88TuSS1K+dLTOlMHbNsNOfl5mcDedq7njoatH3g+nvjDH0/86ldv+Pd/9z/iy5cf8E//9H/j20/fcI6JeZz4q799Qdy/YjsC789vyJn41dsbzm/f8DwG7redkHeo5hNA80zfMrS43IlEa0zM84ncuUgI03UjGgLONrZ3EXS98PpaAPvtxgyYCIwT9qDOZjkh1CQblIW2Bvs6GOBEChqZweDYgEKHb95U4UKBsTnGWuLpADIBp9L8n5xTdrgD2KovvJiXtSiHDfycTZUY88QYQxVkyCO5sLOseC3tRADhZpLVH2+ok4oFJm9KSqHhCEVDsPW97DXM5Ozc5xqo7c9tjWnb3pvabkGFTzD/PlmzgOKMdD+Cz76Gt6lcWTGPpcUZKQbHQ9qeuQqQHgVLyttiXLcIPB8PPJ8fet6Gx/OJX749FKfqXiJ59/MAAthuHfe3DegDf/7xG/78p8CvfvP3+F/+5/8df/u7vwWeiccvT/zxX/4rfv7+e2xfd+z3hnG+4+M48auvP6Cfh1KwfMbe1iinVRVUqlvQmJd0Yts2vLy+cViOYuRMxiCPxwPn46kjct0EyOkaCDltXXOdj4PK1XyngBI+KOOT5YEDjSleXdCnVJp4QQ58phK+eoJcb0CxasyuEOlk/X0hsvpP1Hj54/nE919+0RSRKxJdgqa9rAAAIABJREFUlXRk09Ypdpedx1kvSWHoGs/EmbgWsOvwuJwK8i+wxv7lkgDVv9kTMOaqgpQg2hw8wDEOQN11DLTXe2+7p0RehxOQYftpXZmfJ33xrj0BGSfcq16ZGfGI1rRARTS+I7CqPEQaNK+Oq9CkxM4yWnzOE+fzwXco10kPyXFFPON923F/2bHdA+/PB37/+w+c81f4T//4v+Lv//4/4b694nic+Pjpj/j5T/+KYw7EHfjp20/ICHx5uyGPBzwJZQx6NqZmneZtdf42YY5Rtn1DYMOclA0zKwAbzGvpXfOvqlDK/zsGZWfOlTl1Ha5as0Gv5g7TzTnzKetLuR6CgBfxKQQTn7MlwGee/qdcdJZ1TaRo4MAi92UxPU20o7zMBfvqe/ic7m9vILN+DQ/gc3y8P4AEXl7vYMqUx0Aym47QWQzBSsYAE61vnzzkmnmXS6hkTO63F3mxRepksTPhDkbCrmUVhavKc1VyWoYgc6hSHDojsPdGPxfRKfw4sF24ar6anBPP5xO3O/d/zPLES+T2216GKpHYb3f0bVZMCEE3r4CmnAYQHfdbR+8Tow88Hh+EXF+/4He/++/xw9uv8a//9i94//iG8fgFP//pP+P29jd4e/0NfvzpR/zm17/By5j4GJxcOcYJZFO288Lfg5NBSlInSwQhuMlsk2ccTOy3V8DcrEu89Sm5EbgkhGiKWzR1ZpisqjvPEKWKimWJWELg27bNKUF1EK8PErSJCIzzwHGSJRqprI2VI0lzZj95K5YmMrHtO9p2U/rxSounlV7osOzJZbRo4NrtaJj1fD4RAbzgBU5XOw6g0IsMWHAx1AoQ9c1FcLQXAlPdTgXmHIhOGvc4J7gjYxC3SrB6F972O2hwMt+ki8ciKBVAgq24NdEDG8mlup85A605qcCzjCSvinEIIdO+aY85Vmo0wSr/BDF66w1zBjC5bLS1bRU0J5DN/pwW3VAkIrC1BtwS99gwTuCnX77jcd7w21/9Dv/df/iKf/u3f8YvHz9jBHC+f8P2m79CxsS3X37Bl7c3nN9/xhwsLfRNrc0KrGv5axnjBV1T3oLp7hCcnejBOItp5JB88t6oLBPRlEZHw/3lDrN3E95CrMp7yjijcU15ByGW+fRZWre0eYEj7juv8ZuV2+elcf4qmOduaz4u4lLECwraeXKqYrTULggF5MClZyKF2Q28ZE0UxHr+ki1Ei8A8J/rWcbvfcW1UYiIodIB2IxOLnAgaAKBmeRXkzOUBq4kKgTEPeV3+PIM+Wv2pxIF51UyOOaYQs8Brp6veRIGs7sK8vDeco4eSG6SVjDHxfDzXONMW2G43Ps/MOh+Eq/N82zmB58cTxzEwx8Q5DHVmwUJiZTOx/e7KHrWObX/B/X5D2wY+Ht/x+3/7Ce/PHX/zN3+P3/76b/D6+hX32xd8/+OPuN13HOOJ4xx4ud0QeRJhNNV2woU5lHzltV4kI4lUnKoznaPX2Tn28v2uZisaEI5a8gRGGZ2Txmpl9VS6SOA8DyZViMecYmPBJTJEyFuM19AuhRrYDPaIjPPEtt3w8vKql1HAPh34SDOSEGuICZsJNumUEhBWrYmNgk0BeEc29JLrgy9jcFRserm/4OV+R8qTAca3tsaungaQaxMq6S8CH8L0FBoahRadLFVI8HMNc6bgaJFMKYoJhxRcxxvp+gM7t8CKcupZGmbtJl8xUgRkSAojwnWkx/sTx4OFzyn2wJRnQhtA1Yg0YaZvyByalN+AZvhWh30RMv5X1Y6UFGmY2Hoq1tpwf90QG/DnH3/Gz98mvn79d3jbf43b/Ya+33E8HtheGj6eD7T+SuCTEzmsEG5SahWS+b2XeZ3lbfiIGx7PDzweB9sxJsp4uscf4dR2MDuak7FjAoFe98vzDURnS3SA/MLGNK+Ep1KO5tr7H6VfRalmLNF1+U1ayYyAlyhmjkKR5WVkQVtokQ5U5JsT2UylD8RYeWjrQeqwUsJ53S2hqkT1kLRgf4DZMRBfi3c9SXu45LtdYUZuaEU1kFXqgUhTZ5xbpxs2QmNwqwR5C7Rp/DsrZvCwgcUxOvU+hn5Xz60CJW09FBIhBcmG8HprwMvrDk5a9KidlXpnDOl1Aw3zZADftAvydrtzUQ+YePH0ld57GSJj8kUAtUckx7W1hteXr5jzxOgnnu3Et48PnDPxqy+/w/7xE76f73gcBzAGbjvwnAe27QXP8cREK2YufA/F98lKRoShqg1eNIS25BLK07C7WYw3ZOrOkNwS2cypIL0FIb4yfs8nWxYgw7bdduQc2Lw80oLs4CYgN6W0awlFJpAnolORWmwYY15+lpaxbTeYI8MQhvOgOkiQO70lClZQWrG2tU9QaOZ6ngiyXq8ZMiQwVTyDlG4WZPE/Tfl/YelEJSXWSrZZlszyXCRNe0VRGxbb1PEYiYue3QQsD3Q8Nb6o87LmVMzhGpOEEADcPFTdc4qhbP09+c+JgN52vLxu6okg5Ev3lFxTlxFAU5ymWtYm5RhTuGGcZMa2DabkI5RsUbfdzOSyUZz4+HgCsePlZUcm0NqO2y1wtsTH44E5B3748gN+2HZ8HN/xcSTQdnyMA1+2V2zzxJmiBjkWlEhUJFp7R5oE14aGQny73+X02AbRIldLOEBZcX+MirHFz5qoeC8zMceJEUlKUiYwgz0/FNyURVDWakJfYtIXgCADla2i6TibweUCu4jm3dlK1zXU1PMAlIWRt2gBTKYpZ7qU6JcwPsz1+bEIbhBCiZYigIrujYloi4RIKoxXDMD9SxIiFw6v/fCBGlN56WUJ43iC3wt8W7i+tZWmndqQVOuF2yxFyL+cAmk7oUEQOaa4b7aAPCMX+frGf3///h1jTtxuOxvWKrM1FZADATKtWwvEbRMCAKYLv3MAGwPmlmI76NmeDy7A6a4/pIZhNOA8TwXWZM5SeSdue0drSZrKz4nX1xu+3H+D3t5xzoHHTHzkDVvb0HFebL39gekxhsaWv2VMAZ6vKwFT7QaVIjdsszOPTfIbWCwDd2TSa7683i9K6HpNx8Ypf6uItpTZE0QCmSzTF4GurQwT6gWdUuOHfzwe6K2zF7k6yBxUkbGLWPW5Cg4lMMyEKZgzTynXlJDVWqRLs6VNKH4yjFpxBZAFxULvSJjUMflJVKZpBW2FhRHe7GpS4ap4B9hnsv4JFbVQk9CPg0rYeygLw3OaajxjCEBjNeQleyxPSiH3UArGMI/3B57niXFOfPnyImzt8+zsoWl+TgXCGTpHQhcrXmsNU2l6gEbweDwA0Ku4PSGT1fXXlzsG4uKlUKzd1jbc7x3jHHh/f8e8v+K+v2GbJ1o8cOTPQLyhp7OKqbOwodKuwsqcor4bSNioz5BxxMp8VQr/EvMBWUkjs8DXeuuLUrZchlWf066j++eEgkfAIL7KJ3X4tujGqbLysbQY8FqsBVGsGK0Fq/OaWuB+9l6uUhyqABIuatHKu8iUIRup7wyEqC3X+arih7WA2aAJ/u5wcaooKCg375bP4os1wMWrOQa+//IN53Fi27jPkOdiukvS2opV7Ihm5tDQC39fljHxf3i5DX3b0dGQI1kriIbanwHoueRBvXNvLsRNAZY9bguiZTbkXOxYQLKg2IeEiokMDecIYL/dse1uf0B5+jm4tNQ8sDUKCvIkO3rfcLvd0PeOYzzx/jiQ2fGy/4CeG6KzDbriXil9QXvz467/z16X11qQn7UoeT5nH2VYnULOnJU48t0WGyTBlRETpVBmQm8U8KlaAINqbthpqGEel8JgpqjvUqoxbH2irDgA3G430pW1kagmlaApGE6gbRhj4OPjgZvWp+UYFyLfpW6BhBuHGgIjOa813ZoJ/44tRwGYS9wiZWOPqw59ik7DE2+mMbdQTcfFUx7o1gmbeNiuEcTqUXAGSx42JTT7vqn2MRUfhJSX//n+/QNAx9vbrg1WXnLKmGHOE+Mc2PcNTTykfduBGdhvW80GaI2TPXKQ18Yhe7bCHcgTNX1G9aAaOp6i/8RAtA2b2hPGOD9Z5TGAmcflzwq0rnc2wNtILh1j4uP8wI479nyjXFionRCAWQmtPm0q/2/otLKoViSbyFnGXL5Zd+pZuzKUNtL2PI65paR+lqadlFtC95bA2u3R6mvXZiZgTi41sfZd96m3THweBhYXKrz/UfAo6GDANOdkT0vTM2BgzoYW18CMKY6RXB68ZRCppZ2khVjHQQ6BlCXg7ESDKqgORjR7yi9yPgeex4Ft27Dfdsxx8vBIHcXbD18wT+Dbz99wv2vL1VysgmvRkcJGTwXBARd6+TNTHY8selG4duSc6H1nX7bwdItOwQ9msrae3Mm4b+ja9jQhI5WyrFbSae5cIi7GqoxWWKgtCA1j6iwzQXq56kqy4twJA0Bdf9d96V1yABVogdTCo4aMk551Nrj20Tw5MvQ1pvvAw0EGZTJMPGWJ4ROFBjucaZStU3iQhRK6CqRrLaDiz0+xS1RzFgBscyTa1sCe7V5R/8X8wlXuiCkc7P+9wzv2jOMymBaeTwoFBxRMAP6/KWFtasTa8Pb2RnkdwsQIrKp603e0EhRTNZwFomeVzYj8RBl330F4UWPGhVLiwM3VV89MmphjIHP7rNhT/ezBHpcWL4CNSDO+t6a6CLlqH4kBT4JIJDClQNlwv3/R86pHQTvXa6piC+z7zvOd3DHfW+DWKBjjHDDmjuAeDsREZGDQYmGmlN1iZQzp0UwSmZiBzIMVaIgFoN+ho/FsKhoY35myOzRYEQX9EqjV2PwOJz+0dElGLGLo/dfML+94WfPYAjOHUIDwhP6Mve2jvJdN5yLWcivVvm+XQvYlLi5ovu5xc/48UzhehSYGMtKoydfkPorEnO7L1qLMBrqyCVG6GyJGQQ0LXZELhf+5QNPUB7XZht1cAzvtchXP0vjS1WUU9PHAibYvpf2LGBfZFBy7PxkuKon2Eeyv7/2GnGcpnrFvzskOwtbx+vYF275d2mmvFImOIjCSUosaUPZJiV25HgvCqiMz9d0EC2o1lpfqjfyxM4EIFldhYYXqCQiMMzWOKev8+Rl6/5ocYkjDZMuKKaG98RRkysyiGrmAu9qzdar63XDmSD/vKZL326YCMeOP83xizsD9ZQM3Q2jqSHZ4oRBisQla3JB9ZSav7QdxYYLYh9pweGAGx+ie+ExnKpWs3wYaWpc1Xe2di1IRfSOGdUQETzJZaTmZZQnu2hPO9Wo7bEURUbELVwkLC6oKiqRxRUvBi44PDVi+rmhLHQhU1GNQ76P6DBtmMvGQkxgYwx1kgj08uoKFObXfrkNjjlBuugRB39N6U7fkFQZacFaqEi2RJUgNmA44o8iNY1Dx5nQdJOvnjcFTxbtU7EPkshb5rN4dWvDH44Hvv3yv0ToutsK+IF07Wr5hVZ11v8EY4PngnvNAroDdzUiXtcyZhrMLsoeJp0iM88EzKzHsMEu5kj5wlGnUsr5r/TN1vwNrgdFVRrLOKIX2UvDTiYWpgNznWNkuUBa42g3YqMkgRIDTrqF2UVWqAyWMVyGxNXKqL4IZKOM6/tNKiWZOvH88sLWO28u+XLOpAZjkx3Rat+M4cLvv8PSsADMdAIqc6Go9gpVRwxKkUr8RiK6sBUJu2jwuD7gTPABojXPxqlrh3FluuaZLSjSKbIekAnSnm22/RAQ0bd5WLnJZ8RQsiUBU3cYrjXXBZZkX9SYi5BntThlDcEjcro68YSmhd6okgjI8k9aplG/SOLQSGd61VU3uGBU/2DHZXvJLdDccGBfR8PLywsQNnEVkX8a236plIRVI+/MqVqjh1kzF26vTAzuGEBxLybBiajMuqEQuPqKMJUnW13cDOGl+w9YaR/aPaR5UK/kf45CAy0rEdYjZsjyyd6uPvNw5X256aBUG5nHg3BK32HWU6xMR3H8+xon7ywvaF7rVMSbWGjjXMBxcLWpFQy65lSWEXWi0Es5lqazncr0NaHn5HXfcBa07rXW7CKptM+p3+Hka4x+2qnn5HWdbrIC9khU5ScVh+sKfLJFLv48+vy3uFU+5FQTJDNzvL+h9lD+LcAXeNZilqNyJeBLSXigvTC407PfbJYj1e1/S7hJIzgcQrtRO+B6iq2CqXVpeESdqCKEKwjNh0i2NGLzn0XUbQz8vS+1iGOhdOOvpcteX4m1Jq71FrHlqxZiwZDchlIFt27gDYu8bjnkIT4Zy6NLaNCfnOpRMH1hwoFAWYAqxMkp+yYiOl1dOJnFlPRyUysJtGyeFzDHQ95sai9SP3Wa9XFm0CHgmrQdIh1LWmY1zk2rMqJVDCiZ3zsOwS4+KCaJB4z8tqDYK7XIOKy4qCy6h5uH7zBY+tuWKZEyXEeUl+V4SuFxq7IHVebltdgrq54dYBGHYNdH6xBxS4vB79qVISo0SwnpXuWKINC0l0dpUDSVKsb3L0VCy+t4VwCOiCp3Mp0yMmMD0ydv6n7D3NhKAIRE03WTKkEax04BJo1N5Uq1rm9Hg9Qac5ohlnKgy9e+VtZKR8EQcV90DQPv27R0//fkbhnYJQtYm8HkeLtkO9kuob6yMRizr7d2EU3CMgTkfaNs72tYwZkiRnGkAgIG+bdg1FWQcD44W7a7DrHnBiX7pl+iFhX0MhEgDpkt/Xu/gH7V36Too0xuUmZmJ83zC3DAvoVyf759PeADC6u13WpTvaRKybp/n2xNjDjwfBwPhthQLkALwT/QOqd9V6R2hXgf/DJ/rPJ44T8MS1GV7BGvFDwlwCggNmj0W08ISRVW7rZgV0QQ7OYdnuQYADeX2PIMxFm+Ov1yMOf33leIDoQO+13kMxabLRBSc1jkbCbQSSI98Ir0dCeRgYXM6Zv3kK2SWUjGL5TCd1QTax/t3fP/+DefxKMgXzQW4FSD78s3wIevXMz3skmVFzLMwnkuT/YZYowOPjw+cx7lGfupbOFKncdVxbPX7zkJkDjgeScUZbo+lLC6P5oKP7T6f44QX17jDjP/RVEc/i4RrNfX08j6Iq3XnlHLHU/ZiviwKtOGMIQrQN8JHJjL8bCv96QmRxuuUo1lUCVfQDbNWD32gt86uu0on8TMLEmYWW6H6RHQvHIQnnAMjhSYdGAhz75KGcIm3FEADOMac+Hh/4BwDpriUgZCg8TQ6suJYqnI4foSNBWGBljHz7kFWNmQkQ0F16JecCInGhNG2kZq/aWqlfkuPznYGnwMRpLiHb29vePvyWhkVZkYmng8uZq+AyuzQcEVyLvjgVIHcJpVpFXZ0mjBcw+XB7K0q9TqBx4MN/tc++ZXC45hJjv137DCrDROibSPikv1yEGshatzyOlLBvq2ljINEubWGFh3nJfNSyFJKQk+jVC0siPVDyBSFx5T06SId8P79iZzJxqPWwKFul1hiKoyNBtSAi+XhVTwq7+wECnsZ9O/q1OPAZgudRuBkWxw2xRtNk80B1nY84I46wTtNGRYajyhRayJnBliioAg4Tjnh9DJA47BdspMLelJ29tu9DG39eUN1hyIVrxk6qw/fRoJojaUKtmmzuNh6KwLtuvcsWauSh9R1+/L1C17GHRnAOJxmtOdYHKplZZebLXyZyzXOPKSJVpTPB0Asnnh5udfBzgCqD16xVgvILRrn2ubIelUSIPT/zZZd2Z6ptGjRCExH1EqEnlv9GV1tiB+Un4RunAM9uMI5KwOGUmjPb+L0Gbr++SnTpR4LGQVE59CCMbArPuNESlk+4+5Y5yzdo4AWTVUeyb3w9VQe7UMFCnRlsgZadGx9pxDMU57XRH2V9Qw9NVzNjtZCs37kku1T7OVUb98aEwVqVHJypUBO2HAMCkCEoJ6TOrzxsKdJwro6iPCzXHt4hHYa+0MyuYYuMfH+ncNBvnz5it465pCcRlv0IH8mbBMOtON4IsGMyJwaFB1qqOkmfKEEr2og6o1I1+l9+SnnVezRhV9Xpx5U1SWnqlyvHmzfNmzi8FgpK1cOZyUuef2cRbxbYuJnpLdhUS7FXA0uW+mWcBBTE7TqYpilaa3jdrvpZ4JZYbl8Wy/WNG44j8Q5VuXWbbBOQfLfOVu2RcPr6wtrQ/LcQgwldEuc5nqlVN3gE9PAbdP8jTkbUNVoCY3uLbqKogD/N1p9BpDI2GR9G54fHzhPDeyu+Cc1cM9CaXhnkj0HxI2RMgIkEnrAW2aioWGcBx4fTxaBBdFrigsP+6LwAva5lCvnwBxnvWPpS1Ie3GHqyaHHeeL5PHCcWqFx+XQrvhMvU3s2A0DjZPQhpRQkSof+btbfJEfMDpTOJtTeCbl7UrIDXe52K830lqGitKetZBZsaEH8OTULy0qXig+M6xc1Hqh0pINyWU/SwtkzkBXU2soNtliq/yVzg5mfFVPCVkQXEiv+ML2BGNjZmImPjw8czwOrfUBKLy9R2A1KIXfOJ+bAvLwoR9NlQxX0qKeJ5q4ZKwe9fetNbbmOX+ZSUsEdNAbm79/f8Xx6OSmQMQp6QjFh5jX1aWNwKcDBcRdjw3OsEl/BbhmcWdm74RMtj9J0pAJ/S2Qbz3dNuqHB7R2KKS7w2cPJ63kvyQApzb51FaYnMg9ClBbw6j+2Vgem98/o47dts8UAc+2xkWaNA73vcGpyTFas79sNgaOgRKuL9IXJ3k8RzERZP8dDuzxc2LGFtwKgvMu14f5TYCfYI1tX1jmyYSThQXyyiIYZK3fhiRYxOZJyjUE94Xv183zyhjDlAgiQ/sA+9in1ndw9sm1SCl31dHqcfKEWu+DFCQ7OsyAOIDd8gk6CLWGlbm4x1t+D9YacnF+8bV0ts/yIa2YMNRXdyrPaWAv6mi8mi77fbsWl+5SN0n+n6kI5JrOgvVc8EF0Dw40qVBtxW0JE4PbyAoTWRGsboIdxRCUmIIg4WeY4CcW3zfOZfWeC5XOqyO1lOSfGMbDvd9xuW/WmA4HrQJCIAFqq3gTBvkQbE3g+HpinCy58GYsbZJV7p6ZxbbB7JoKT1cOHJitnwuJY6HBTVXdV1gXPkEVvTw2KaN3Bn2dCOZszdXXM5ERrOE9SNXpb0ym4EWu31vtNZKnsvbhXhJ95sWzC2gwKCUegpSrhSriho9VQJvp2f+G2Wrhes5QYoYSkPALnEBPfN/UuTAXcn72PXqO5ThKyijIAjQp9Ph+aXIh6Nmcij5NUeVv4t9cv2Pfbgix150YONEFrj4bZtar0N8eoqUyc5jFjFeEMcTIvzwp7IafHxxocN094lkGzt08AYSYyEwjH8cT7L79o/KyVtqGq7/jczZrJ/p/b7Y6XF41nmvxdjqsaOreu775ScBq2sHUIFFTZ+qaDY2aDUwubMkwfaLEjFGgCnlVFkuOQle1tTY23x3C61q6fw5oJUypOqYdTpizoxVxTKUXU5Z3HA8iOvl0oD6KJp1Mf4n0hgd744rRq8h5RB7Cslvy+57/ywAMuJAIDLbZVOdZ7mlgXIYUi2NdnrixOABem8/o+UkMslKK2kAukSjhKSSyBrQVe3t7Qm3l1rk1QcUMeuN6tcWQnx3EuQ+S6VIQm78PxzwWTG4ZHAI3eC6EaWubqAZfR4+PSC9rX0ohC9RVDQM/gsswI+ug1oYxgaxv6Ni39WAcRq8CJ1cKdmTXTLAezeZUO7ytmvTJNrJxMVvXGaXtltWR1S9p8oQpGe0ffuQ9kjIGP93ecB9cHBALjfEpxcP1GIBOzxvP/ZaCNwrjLOvKQqjEJUANQLEFLYN93bDthnGe/tmio7ab6npycBsiaNT3U7X6TorlmcPWEWF6g8K1SwklGMIP+UwQ8K47ttD0Rg8/VT0G8HI1w5+P9gefzQLUIV9wQdS4AoRpyBbJhT6eGsu12Q2yKKeRneYcD29ax9Y5EZ4JkjirwMTHQfEVwRdOfH8Vt4s/MmXh/f+A4TBVJ3u0ATA0xodUSwBcRGrg6Kfhdm0N0OKULeeEGFy75WbeXF7y9vWh+woJIrgs587cmvAdaJwn1PLmLxXLRGpNB20ZlhJU6bE0adxS2uChCs6W3/gt7i27hmbOByYng+lxnwPq2yYIsd899LyHKtCFGEsfDlsNWxkK4rO1Kwc36324MYgxFq8v04IlxdEFCp1YDc3Cu77wNPB6sjr+83jDOQ661XdD9ujzYCzmLZnp8PYsau7DqDNBPL4+RsGR8jq8Ue8j4LDbvonAkQhMd/XkpnB3L9kzg4+MdQODlZft02WxbtdU2XgPutx1rA6zabKu3R55T/0ZLTmJnQwB5IkdH7OxGjQgcBwc8rNVnNlDyIp/S1pCF1qKaKcMA1dguLGEg1C05gZbYJENzmHO1ZqPVREl5TJ5Tx/32wuyajFRx0gLVEFeryZ32DxrAbWYUr6VghWgEZImuqvVyjYQO+21D37i9lULQVmVYWj9noiNQK8acmYB5ovYWwszhIFwwoly8TYtND/tNWG7gZ/dOz3acTwB3Ng2JycrJFa+ICJzHkweRL/QobVmQFOgPfZ3fdw1/8+1qoEPzjFdcYrhLXaXoNE1nyz+Hzvv++qq/N2XHcYq8KbT5Na+V33VuTu0Wy0/0iSkypyHylcCHDHhA+cihvpoAA/gmFrI9opRFAW10psgr9QsAsSkLx1oFmQU6JrB9mLYiSja41cocLM0W62RneNYaywET3EHIV5xxqnBmgkmgRMUCnjTQkz3I/EkRZilBy0O73mXjEbFadAEt8XTPx3GcQJ7Ydq8cc+rzAi8mSqA9dYT9u5pkWPiZ/Ks5D8y50r1AaJqGBdDV+CjPgnA8MUrADP0W1FkwK2CIxj/a902cKbr1qdoHszwsYEVTYU+W9prlqhN33FNJCFnkBgAcysARosCMS1wgEYWgDv9xI5JiAhW46tcsa0uyYLjoYl2xXeFhOcuj3V9e9NWpbsRY54i8DEAAKedFoSpzhGpZhZMQPOvmb0xUq2vC9HgRP7pYCplA859baPm/R7rfm78z1MffOg0IC6YMovd94yk6XdxXqkuyAAAciElEQVSAGPSyPTbdyTKaNpImNLYIoG3I2TBjyNL5kBuqrbvdFjROEApGq0Y4EYaWEJZWFi614KysBIT9SJE3pdpC7s9jbn8T0bDGhxaJL/W1q6urKrXlNNPXJTwvJaqg0j+uTJequNF3fUSu7ro5dficb9U3M0ljPfsFN6femYGa8mARK2gXGc4FJ3f8RfoT9d4XrF1WQd/C4DGV5vzLpiD/zsTzedbUEf/5dTD256FyE4uxqmfiDqx1ZpfgtgGofYFwcZYP7dUXUyhzxWJLOOmJBM2muytD3p21KCTfcxwa+xmOZ1bf0Dg9CNwKw7vrmgQZmbjaSn9uCb4pIhPKgjX1uktBQ01YPECM8cQYK/a79vpEBM7zxBiTZb+pfP6+d+ybG4SsbRegC8uQXZThiB/2EtBagPoOWsJl4VsHIoX7czColzCuOECeoiDrCThY13UGulKkfDHzxjBnxSikM7gYBCUQJhnHAzCNP639sqItlsE4x8DxXCuJswqoUYJYXYchEmCt+BLlJde/X8/ScIbvuRinJt9lThzHcfGsUf83lIwAuG13FvvVQuH7o2LQBjh1ixKwvHwvnFGUwfHPmdWQyeF/M8cnZnMZCslH/e905s29GVzRkJnozaM/+Ru90ftvvV/mcCU4u43/3uQtkANDO2MCZlo3sHcnSd0R3IwE+10aYK5g6xvj6WuWzmeaJKlum+BZSGDShwq/5MWrGB6VcQ9ZJrEqK6jU4SpTRer7qL9pjazM4xiXCwi9qHDsJRi3+298y0sNJHAe3DxlISWEmUXNnxk4jgdWiy2FpfU1b2v1i0uQmBUmfaL5ShZUWmloXt7y2vJ/1R+Cy2ebCybbe+kZWUPT/JkDBnwcqbThfr9zgkds9qXwrKw5/BypM9AppgQese4uDc54XnRogib4SyG/yoGhFw8n3Vynv1nt2jIIuHjMiwfdlMChHnKSC5+zsw2iO2vJnyGMGxoS5wSHU+a94ogpebORht/PL2NqjJQ8MLieAkmGhA33ZYV5b9yl2eyl6GHYG/25UcdZDLlbvXTIGjHluTIEPqSytvq5iMR5kpvDmxEsaLsElizRCA+b9jUu1+dPdTDslWx8nlDw5uHbrLy23uoKQ5befsCY1fAjQe7OnMD7+wMkXDKLsu98NmNi9tRbOZxa9ms3kOjHT2527RWPWGjdG+06iguaDTkGHo8HMoHbbec7T2+yMrXmXLOLyzPkxfm3Mg7u6VnCk7gysKtWAxu7lU5n20GHjUVrXC+33mmg0tiwEPp7TGCkMrbG7VtELrYllKn39w98//5AgtMceYdMsDTVrDxAEODwCp7b0gffR68yu4vTzKi55Jlz4uP9QwZmVmkiMYtWj8wqgpdALxaLhDj1JYIs9fpypa0tgQ15DQudoVYF+frS3hr2+53dZ3bB9c8mrNgW7LoonLsUc3JhqLMd1nx/h+3kpmJYiw2WEKsa92AQ/lyQN6kbjweVOU6YmjDnrO42NGboSAxoOM+JcUzBjgW57E0Kjjihn4DrMa2BNJW2Nta2pknrYKHwHCdW6lxp8miItqlmdqlQ2zHLa/JfmfUbSo8i1nhNQqvE2iolKoa+23/ve/KYI0kAPsewZj+sfxZ6Jd2GMMj6Q/g7Z+L5PPB8Plj1b5AC94sMXKQ0bbxDfDszIajE0ZhQmH/hXUPnB5gDyHjjPAfbAC6SkNDo0XqJei1/oF9RDFI6PSNwHAeXokRTGs6kwIKuYtHqsrZtUyrWaVBhzHJ9vhBbMv13dCB2BcBdFz00eSIAr4S225U7TixhmbqMK9SqIFqztqZS0/u+4fXtBXvNz7IlDdFgGFSexwmIKmHmagB6rsu5JkQjceuwDzbq4hg6zct3Nez7HczC2XNaDOfioTWfUcgASEAMO3EtgsnwIPGJOJg8oJAyzFJuyIoCiJWQqb+z9YbhOLOXgDlV9lADXsDDzxTWD0G7YKr5fr/jft81/WbS6ExLpRrI0vCNz5DXB6pnGZW4AAy7AlUARyCi4+XlBb0Htr4xa+aOS6frI7AxF9JUMIHy/aqkGkKkIZaRKgXheD7Qeq9RKgyisyzDGmkJsVaoeJzjRA/hjMeiiOvgG0SeWwpr3W7RMFuqgq1BxBMFWxLBvmRzokyzrnggOfhYRMYxWG1mXwUPd7/taK3hPIzLSaPhnKlQ7cgXDRLzAEFJCkrvcbFgvDxa/kBOnXcs3F3VdD33FNuZ1ueC58tiq8vyomhleLDqMGvU6NQ0THkKC0tj4JBOKcdVeSlkzDCtdL73jUPCe5UN2V55KWDx7zrichYIzqYCOKj65UVD3ERg5Pm4Wg8ouNSjXeMNlw4oV5XSlkzlBaIYvNdYXUz0HSSVFrZYM7da5Kre2nXxfBo42iXkBqkt53GqEy9wu78Q6+kQVpqWQs0Mk635erzMpm49xzP8/DkZmLrQ5qHPKzXcyvK1CqCXsGSe+vq8/A6/mT9vr2VHDVRRTk1fmcD37+9MrXr9gYLx4/lUrzS9wFYzllJjdnhGx/PE4/GAOx/5vKY4KMhu/UJ+FjWiFMAQwvFaFiRjEKy7mqiWY1f9PRyt+ktC8Kve2BZL9BpXov01qYyQ7rD3DefJvnl7RtemFiVDz22FQ7tU4lHPFnUfCvBnIEewb3y6pdpDprkCojn5oRjZ24GLm5eo+NRyt7ypZCG1Hfl5COXohYPD9cYpHzWUONIxBSHWsj7ez7307C+teGCt1+USzm1X1f2q1bEs1Ar37RZVzJmJ58mf74JKIRxhCxbBvhLU+B4rsd0pymIuAqIzYRwqZnGwD6q6Dli9dgHR79caN8ECPDwH39HoilulQXmJ9hCZJ6YX3Pfg9tZi9epJEzBToOkCPscofj7VkXhtsAUurpHes7zG1ShcIta1iYuxy5xOphiS8XtnHef0KRWcmZkVKLMIuSbLVFuAPWMuT18ctKirkhS5yJxSOBeNU9M15+p1V12DkzWtlLlQStWCLF9bJRSinkmtH64zWHn0OY/HA4+HB3r7HEWiBRnwkHmqL4rSQhR+NfWD/c5eupN1sebv50RlZpzyrfUDiXrJMU6M4yxa3+PxBKIR6ug5wy51RgmV+zecD8pQeKbeFEXRsmZNGeQheovTuRetgaFLFsR8e33B1gNTvehuvd32hra58MkzqQD3IiT32w23+355X1ySF+xYY1VchEEw6XDN/bv7sFQ7ExxHk/X961CdklhNX06MsGeHm6FscPhrK3Pm6y/BKytLoe294f5ywzpe9ZSU7Mh4Vdp+wgN6KizQ532i32TguvM99BnNrQvaijWnd6ErnkIqJSu6i985PZ2Sd3+lvm/7hn3j3II5OaY2ETXQoWokNvS8ebRUb0LUF+gL9XZ+AGSq4Ua2ZtrdXVyWHqwATLm+9snCAKyQbhvZuecYeP/+HfNkDWAaDyqmCUCEtbHmq9qjmTtUliF04bIA0ZZnTMM0P8vC+wAJceMcLILFNS9uL9Ek1FkC4fSxXTbjnXGxXoRWM491vmU09AwXD1hxVF6gUUCQxYH/VN3FympP8jkBYGYworG4V4wKJUPS6mkFbm6045/XxBMZBBmfYu2mQaCgVeg+osMQLhTPWpEsHWOcNRao5OLC1uCiosS2b+gNgLNf6We1QQBwVVY4FgEWc3dKdqHnmfXMt9sd+20Tu5lQ2yFFJrCFgmHTkWvMT4CuoFwpX57QzxfigNDpR2jqxPoMLzap4FuyZEzOAK9hv93gFbzlzi5VYEBttDm5jRS2qJefLyVlyre1hvMc+q5Z1HDuP/EpO1mwnLUbvYpSXRZb9QcAiIshAD1ZS82/AgmSTZcHROXTjc2NvKTGWKsJlHIODxNwAVaeRr0hYe/lz0gT+6RsSMJj/ft5PJAZ6PPOz2orHvt8N8pwhVP23HMfeT1jXu5inizPV7KDBDMta5gG/9ItD4VdYP3RQRIgn9yB2IKbec/BkkBz1tUHmJfvCyVw5sCMQHemzKvtZG65xClxTZsX1JU3imhomWyYovXSoUZUiqzaI23l7EEFF1jRhvDaSlfykITVS5DMjpuLQIZEjkRvHa+vb2gN6um4woqmQ2AL57I4sQS0UBKt0JysKziw3m9s6kolDcra6OcXFPpsfX1zUelL20uflTJISeUwxqTV9lh9JwukJM5SebVjnWmgJvqFaDjhZUKy+k5dzuSuVAy4opyTlBS2I/DPV0mUA/ugzB6/lLskZ86qg1ux65+UalZ2bQmyZKuEz3f+6ZfbrBbreha9M3d74CL0KxhnNnFDA9jD4c/2M0BeO8koSNFIykDGIlgSFjYuNy1kwbhsddzK29Wd25EkRFK2q/MJXGCE7RRdCqqbTD9HKrgsXlVz1coay/1WRfO6uD0CXhUADGWw+PFVwVQtBTlUUNvW7zcrh5UR8FTwBKf+9daYBIjgrKaq4Pq5XOlewiRzvO7aqUVNXLRHq0nmJRMOLk2KWxrQAng+Tzwf3MPiNCQK7lzCzeDW2fM0JIR6pfX9ZRpcfKVgcbdnl1FajVo5hrA2q/u0/G5lVQwn61tr0fwzsOCtrGCNZrXl1u8XcpfgImXwwmdhikyUCy0pU4DumQTbfuMgior3lqdk89hSRsJBgD3+l3Q3GAkd5wGzjj0kY+b6DCcMytJWggWMQa6jfQBfhF48PYluUUmAROtQ4U8NLCYLXiCJFY4ue67DkHeYcs8zO0auLIsxfw0tEPbkovizBMRFxdWqubhVmcS526YgLDyeR8F+B2pSfSzvsfB01jvkFC8+2Wc/hqce8v1cXGLMwMtnh9vSntAejON4lBIUPpAAecIgwEaeca4p5oVkHFzDMQhgPtW+37A1rH6JpOFCUKicJbJY/eX/ySz+P2OrALzxdzG1IK4aY7R2iY14Gc7ykQo0z/Ni9alonOHV62xmeSnW1saYRaXnVt3F+AYm+8YDyyBHIGfgeDxqj7yjjAYTGW1oc71zMCSQnZR3kzcBE1CtUnvlPfyxkMABHmxcJfpomMNTPviijA8SNZigvMnKWtTekbKeGnOZdqPX/Pl6pvQxpv9sXgTHdRJ6o0XdTmy9a1E94cfHxwcSWsuMC1PgkkBobp6SVyrh10VEMw18KZEVaaXIl9SVooHD8m63nRbYFPrKGIn1ixSb9Ca2qZMEa8izVBhVJ9H5zuT8p+N41vens4vpZISJkymIprjzWumWoYHTheUp9YbRMQa/p9YS2C5eSITbtnGhUSYcWzAVPpE41XOBeoe+3bBtbVFsxlBtIuHGt8uRo4aVB4BUnKU9JkQhfNa+bXodTqb0aj/LJQ2v39+DPHjCW92OAicHiemXtQsVJDGF4v39HXMOvL190Y48U69BC2Y+Ty4lSa8wvpT8qcmyDnZzy6Fe8EsrgaZRNERCxUT+h4P5sp41EziOA8/ngdvthtlciLN35HOa11UK3SyQqwWYnK5rdfxSkAKosDqHKpWplsQxOCfO80Dfbmobhfb38dc4UJVWs2HFZN072i/zqlYLa1QQG5c7MvwL99A4wI0oKEhcT8u+WolVFRdUXWdLiNLAjQDncaL1DWWSdG1rZ0djPegSvLemWbwRiC6DChYHx2ho+wufRSNGGwiRz7FqPKx9OeaTL43A/eXOdYJCKOcMbH215c6YGgHU5VUXVDQ055vQcM2Z2BbCm2WtKAjm5POt58yCXmQ/HgU3tr2jITBPTj9xibiKUvqOpRROuf1FExUmkOZqtYs7bPp5SxyncrS+MfgcIcVm/3XOxGzLKW8tsN86iZUN8Jq4sdrqCusex4OWr228Cve1EG8oBbwgJJMRq1ckQJp9abaoO3lmpV1dqba3Wp6RhoXfu9aytRbwCKLWG8ZpUp29tQLdAFoPtNo6xQo+K9PqvZZFSSEBp55zcrQT7JmnvjO8RQtrflXnpiam0LMMEm1pqsrdi89xLWoiFt0klBYPeac5LmsHuvvdReiMDYkTlTCSQVnbz4Db/aVGJ83zxMjV14MAcnApU2sNfROrw2ipAWsa5SlEPbWj0F+aUoKyyoA5QM5QZTKYu91u1LCN1sJ9GhXkXnL0ImJRZJIxAolv6wCAhJfKR9oaGX6ssTR83qZBaRN9e0HFPob0TRcWU5RvYN9esO+MY87zQ9keH7YRq37fiy4/0XAmhaMMSsCDlNdoICtJoQr2E+hC3RvOQliqdfXURJALtAQxumOk1oJjM4/E6yur/KmESSLIQ7LnyEDiJPQtxm5Db7vuxhmpNVoVMTAj2exVae+VnrYgJc6Ld+jKFF7XdhcaA/SEDYA3PRUDAQGIaQuoP6dePwttvL+/c+jCy53eTTDtOtghM2WUB8ZgW+/Wd+2gkc1Jx50eqXsD8ITrOZAfO85TJQFlOlvzjbvwhno1ZiEUHxB40/bPidY7Xu43IuBoGJoS6D5w2v+JTylUPynWU6csIr+aOXNAnJw5q5fDQ6VrH14HbvedPQmVf15NTzUpRT7kzESMg6M+dQEO8KpFNKiQ235Hbw1Dw8VyiZWNq45MATmgDIlz6okagA31goftIiquGTOReazdJ86/owGh/oq0cnLXxhgHZhJHU3dtmVHfZTp9Brd1PR8noYeG3ztaW1NT2HPBGV2y/oqdcokEFbptUh4n+RKudYQq1/zwBCbXxzVLxIXYSCXtZTAKaSQfMhprUedxIlridr+rdtXqnAMN4/wA5JENq3inUw1vocIuY53eO9pu43CF9xDdxsE/arjcRnzGtIQXpfDdTWJr8AotKxMb9zs6EqcGL7s9tIqG0MPFNQOBUo5oG7ZGYXE/h4tALiaxbuH1xppiAqBnw/1213ckajB0qWeZbL6we6RFkd+2hnOcYvfGeiYVyM5xwDVyKxss8vY46mjcXLRMCZW/uzx/KH6b1Gx5pDyTsUh/WdmiCQXjqGnpNoP3+w2326YBfsurscbZS8hab97MjHGiPMHC7xcFT0mGPak/E/rfaduaBV9h7+4RpcUylpGidi4DBHqjic9FZMSshjO+Jo2wB3/0HqLrqOCaw0GApGkQhik2oxFtddccXFFRIBV/0tPYE1FE1tzhre9VT0kcaLE5SFdxULdaIl0W5JLkC2HsIW2dE61vmt1kYbgOUAsJuAMgxRMNMHGRxSZjcfVcNG8wbfX7xuRzTPS2AuUqmcQ1y+GL18+0Sy8EFDgGwIWeSmRXrNF077m+H3T7mRNb1zKXOZBNMYmEnBbxvMwgbkuxbDGBmmrIcxq0nuEs4AWxZaw5WOqFmfJCNThJsNDW+DhP7DdmwVrv6hb1vKf64Ho2ZrbWna1MqFKjcDCtn2gq0GHK0qoo6dkE/opSxoCHcPuPcwq2Qw5HK9SAjgl6q/vLC5+lBXvMsxWEC3APSqbBnOQ0LnU7gxXJHSEdZWDVV1IIQAgknQHbLa2AJ5eHopUVbyyvYbscyJqewQCSo+yPx3tZeQCLFp1Th+/gc2LmAWTg8Thwnp6Gh7IupjRXwQlQcCttBzBZSpbFkRLWjagu4sMqaKciF1aAalzsPpAWZjVbyTzzb8J58wx6u23bcSXbIVUNzjWVfD3Zglj0eFPQgO8/xpNZrdZXNk/n4UmIQ7RweyaeV1sKD5L1zuPJbcFwnIRLAxEKYug3tIoC6/mXZOtM2zpbWX4K1YofA2NZKln01Y3Y8Lk3xEaTMkYEkWqY0J/PA60He2oUvLemmAZqSAsO7ZMDL0NkZ8jH0d+HZMjKoUJh6D4sz5zF5V8WOf5TTeD6JaagY6XC+HfnxfpZcNWzHADQ1fEXglh8rXLdcr3Ph9org4rgFkh/btgqQfAtP/UIY05U9gYogyvopal+y73A24P4PqGMx8KiKy6Z9R31v2MoC0ZISD6T3wVV3WVDlERL8ZETHqZRWJCdvWIGJ2VVpdAxOdwh7NWWkkVwAkjvFlvHUlTgfX+h0s2Tiq89GgFjbRQkXfD3U8ABt+BSV+1JJlrbcBwTP//0E86Tm70KachDUiazvtMTZngVE9cqvlP+TCokGPOyk3AcwDidZVuy0BqQY+B5jE8Oa63dNtNXCKQRWRRpsjxJLAhXMaWfey4FsSanC0V2sblgjOxsBbUAapxNC8739ej8AeDx8a6BCur51hNyKMMdgY7b/U43CQ1kE0Z3IEh3OZExtGgl6wXTf1+to3rxgl2TB1YwLkvhzajtbRPkI+25b6E5VWtDU03AFFWGg+JSyubOswC8riycWqSVS+FJz2WyCzeEojunN2rd1liwp6rSssIS3oyG4zwEC2a9o9uJt327Wot6l9QjtgBC+0SYUZNRKhjhrKYs6wzBOmvCLGOTZsuWdjspwXdYHZXq9bAXgZV/GTgIBnnVm4dBNBFMZ456x/M8MJ4HRTk1g6DYIoJztUdzySyUlbPhCSlHefpKu/PMttrbbdyLRXFrbS/6h62rOS9TuG/KQniuKQJoU6xS16tkAU3F4MKTifvLjgBnGJ3HE3F7KQ/jFC8XIvEALhlTFDaOXhdiblRryjzl4iEvO6PcfHlFKtWsnOAo68LknTNpgoCxZA9zFdQKkiX0WeqZCS+qv1hoQQlDRPap89c9XeO6Uo5f6PxTwzgHnh9PtLcd0fj7rgZHBMxrt8cu2o7jLjSczwMA6xnQvSxBnXUu/POBhuum4ju+fNU8AE+c969f4IlbVy9/WdiHnROe+eyCLqFxg89L6eFgCcCWJZPEVSOO0IXkmHDLA0WOz06hWFnCaKkxVwe8Zs7P4FogCaCJDRYs63WlSiHXakGRw8HqiWCOfPGHEEw/9t4Qr2/6Mqfl+ENT2bEWVneh3N4vDo6H1bxiIQLbFjgPW2sHdI6Xpr++Avn6RgkFDaKLZbIqSixxn7q2+qKLuXFNXHB0f1MVGWHoRXi6Er6rflPGeBlLKYyDfvW6BOiJxCadaivtGg7Bl2DhLXOiB53ZfrsvwaCZgSvANaQOTD8ziHb6NgRvP5CI4qnlJYUKMO28WLFRFzMHVx00xQa9AxBJkGl/w0HLi4V9xZM8jwU/l/ysny8meHHPGiKZzvWSnG3TOTrgyFaGsZjoirXI3u1sSygkwm7RTNFvlOSZGLCJ2QDNU1Uxzz+YE8jiBU5kdkEPYuMyNkC5JaQt96qZVAFP6wgCA9EbMjuO41mTTujmeck5Fadi4v39A0jgy9cv4AR18a3M8Vf61hXqTHJ9Wt+XcDmLUrhzAA04R2LTXGIzQHtXTSQ95Bq43V7QFRvMcmML/Drgp4YPNIWbaBzsPcZgLr9mxFqYeUkesgdftlPmae+VAIaCY+5e2e5N3h0ok3YpDAKKvxJIDKWGKaCtEd66iYhGZCyDktbuwFo9d2FHJC5+uYGVZxfxSgNU/R7sdbKl8DlF1J9VmKiSw2qsG5gZWGvSDG+dAODz2ohVXVxKGvZYTk0nF4ZWp2Zrdeb8e9e8dLVEQ75opupyTuSwKxQDNjYdjpxUBLLZEo71YZqFWuQvOQhjbjIzO1qwO/Dj4wOHJ8Mj1n+CL5EZ6vCbKmAtnJ8w98tD0db6sjXjVmlXNHBAt8ZOKuU7zwPH88AcxLmt73geymRMoLVNfQvG28sgOKh3RXqMk0G2+Sy6p/M8cB6H1MkJkah3jqpaD513r3ZSK6DPhYMNRNeu6Wb299vyWt6SVB2ATTUfU0sm9n3HfrtL6bGE3gFzWVnUMAVoAv3MRIpY6hpWb03tBGoLLgOgoBoDTjRMCWMZBNjDSOWa/ndKMXQCHJBNjzdnqK7R4eGCPi9TYyxD9ur2UO4YpfG5Tn1Z8Mqe+f8DVGzD4KaLxF4AAAAASUVORK5CYII=;" parent="1" vertex="1">
          <mxGeometry x="25.720000000000027" y="170" width="137" height="137" as="geometry" />
        </mxCell>
        <mxCell id="yE4ElQ9jsAfEs4iLxi3w-13" style="edgeStyle=orthogonalEdgeStyle;rounded=0;orthogonalLoop=1;jettySize=auto;html=1;exitX=0.5;exitY=0;exitDx=0;exitDy=0;exitPerimeter=0;entryX=0.5;entryY=1;entryDx=0;entryDy=0;endArrow=none;endFill=0;" edge="1" parent="1" source="yE4ElQ9jsAfEs4iLxi3w-7" target="R5q-NAC0qO3H-HwjX98d-31">
          <mxGeometry relative="1" as="geometry" />
        </mxCell>
        <mxCell id="yE4ElQ9jsAfEs4iLxi3w-7" value="" style="strokeWidth=2;html=1;shape=mxgraph.flowchart.start_2;whiteSpace=wrap;fillColor=#000000;" vertex="1" parent="1">
          <mxGeometry x="610" y="434.25" width="20" height="20" as="geometry" />
        </mxCell>
        <mxCell id="yE4ElQ9jsAfEs4iLxi3w-18" style="edgeStyle=orthogonalEdgeStyle;rounded=0;orthogonalLoop=1;jettySize=auto;html=1;exitX=0.996;exitY=0.503;exitDx=0;exitDy=0;exitPerimeter=0;entryX=0;entryY=0.5;entryDx=0;entryDy=0;entryPerimeter=0;" edge="1" parent="1" source="R5q-NAC0qO3H-HwjX98d-15" target="yE4ElQ9jsAfEs4iLxi3w-7">
          <mxGeometry relative="1" as="geometry">
            <mxPoint x="591.5600000000002" y="444.8749999999998" as="sourcePoint" />
            <mxPoint x="613" y="444" as="targetPoint" />
          </mxGeometry>
        </mxCell>
        <mxCell id="yE4ElQ9jsAfEs4iLxi3w-32" style="edgeStyle=orthogonalEdgeStyle;rounded=0;orthogonalLoop=1;jettySize=auto;html=1;exitX=0.5;exitY=0;exitDx=0;exitDy=0;exitPerimeter=0;entryX=0.5;entryY=1;entryDx=0;entryDy=0;endArrow=none;endFill=0;" edge="1" parent="1" source="yE4ElQ9jsAfEs4iLxi3w-25" target="R5q-NAC0qO3H-HwjX98d-33">
          <mxGeometry relative="1" as="geometry" />
        </mxCell>
        <mxCell id="yE4ElQ9jsAfEs4iLxi3w-25" value="" style="strokeWidth=2;html=1;shape=mxgraph.flowchart.start_2;whiteSpace=wrap;fillColor=#000000;" vertex="1" parent="1">
          <mxGeometry x="755" y="435.63" width="20" height="20" as="geometry" />
        </mxCell>
        <mxCell id="yE4ElQ9jsAfEs4iLxi3w-26" style="edgeStyle=orthogonalEdgeStyle;rounded=0;orthogonalLoop=1;jettySize=auto;html=1;entryX=0;entryY=0.5;entryDx=0;entryDy=0;entryPerimeter=0;" edge="1" parent="1" target="yE4ElQ9jsAfEs4iLxi3w-25">
          <mxGeometry relative="1" as="geometry">
            <mxPoint x="740" y="446" as="sourcePoint" />
            <mxPoint x="758" y="445.63" as="targetPoint" />
          </mxGeometry>
        </mxCell>
        <mxCell id="yE4ElQ9jsAfEs4iLxi3w-30" style="edgeStyle=orthogonalEdgeStyle;rounded=0;orthogonalLoop=1;jettySize=auto;html=1;exitX=1;exitY=0.5;exitDx=0;exitDy=0;exitPerimeter=0;entryX=0;entryY=0.449;entryDx=0;entryDy=0;entryPerimeter=0;" edge="1" parent="1" source="yE4ElQ9jsAfEs4iLxi3w-7" target="R5q-NAC0qO3H-HwjX98d-14">
          <mxGeometry relative="1" as="geometry" />
        </mxCell>
        <mxCell id="yE4ElQ9jsAfEs4iLxi3w-40" value="Conv2D" style="text;html=1;align=center;verticalAlign=middle;whiteSpace=wrap;rounded=0;fontStyle=1;fontSize=18;" vertex="1" parent="1">
          <mxGeometry x="873" y="221" width="60" height="30" as="geometry" />
        </mxCell>
        <mxCell id="yE4ElQ9jsAfEs4iLxi3w-41" value="stride = 2" style="text;html=1;align=center;verticalAlign=middle;whiteSpace=wrap;rounded=0;fontSize=14;fontStyle=2" vertex="1" parent="1">
          <mxGeometry x="873" y="241.75" width="60" height="30" as="geometry" />
        </mxCell>
        <mxCell id="yE4ElQ9jsAfEs4iLxi3w-42" style="edgeStyle=orthogonalEdgeStyle;rounded=0;orthogonalLoop=1;jettySize=auto;html=1;exitX=0.5;exitY=0;exitDx=0;exitDy=0;exitPerimeter=0;entryX=0.5;entryY=1;entryDx=0;entryDy=0;endArrow=none;endFill=0;" edge="1" parent="1" source="yE4ElQ9jsAfEs4iLxi3w-43" target="yE4ElQ9jsAfEs4iLxi3w-41">
          <mxGeometry relative="1" as="geometry" />
        </mxCell>
        <mxCell id="yE4ElQ9jsAfEs4iLxi3w-43" value="" style="strokeWidth=2;html=1;shape=mxgraph.flowchart.start_2;whiteSpace=wrap;fillColor=#000000;" vertex="1" parent="1">
          <mxGeometry x="893" y="435.63" width="20" height="20" as="geometry" />
        </mxCell>
        <mxCell id="yE4ElQ9jsAfEs4iLxi3w-44" style="edgeStyle=orthogonalEdgeStyle;rounded=0;orthogonalLoop=1;jettySize=auto;html=1;entryX=0;entryY=0.5;entryDx=0;entryDy=0;entryPerimeter=0;exitX=1.016;exitY=0.449;exitDx=0;exitDy=0;exitPerimeter=0;" edge="1" parent="1" target="yE4ElQ9jsAfEs4iLxi3w-43" source="R5q-NAC0qO3H-HwjX98d-16">
          <mxGeometry relative="1" as="geometry">
            <mxPoint x="885" y="446" as="sourcePoint" />
            <mxPoint x="903" y="445.63" as="targetPoint" />
          </mxGeometry>
        </mxCell>
        <mxCell id="yE4ElQ9jsAfEs4iLxi3w-45" style="edgeStyle=orthogonalEdgeStyle;rounded=0;orthogonalLoop=1;jettySize=auto;html=1;entryX=0;entryY=0;entryDx=0;entryDy=49.81;entryPerimeter=0;" edge="1" parent="1">
          <mxGeometry relative="1" as="geometry">
            <mxPoint x="931" y="446" as="targetPoint" />
            <mxPoint x="904" y="445.6190476190476" as="sourcePoint" />
          </mxGeometry>
        </mxCell>
        <mxCell id="yE4ElQ9jsAfEs4iLxi3w-49" value="" style="endArrow=classic;html=1;rounded=0;exitX=1;exitY=0.5;exitDx=0;exitDy=0;exitPerimeter=0;entryX=0.006;entryY=0.44;entryDx=0;entryDy=0;entryPerimeter=0;" edge="1" parent="1" source="yE4ElQ9jsAfEs4iLxi3w-25" target="R5q-NAC0qO3H-HwjX98d-16">
          <mxGeometry width="50" height="50" relative="1" as="geometry">
            <mxPoint x="810" y="460" as="sourcePoint" />
            <mxPoint x="860" y="410" as="targetPoint" />
          </mxGeometry>
        </mxCell>
        <mxCell id="yE4ElQ9jsAfEs4iLxi3w-56" value="Conv2D" style="text;html=1;align=center;verticalAlign=middle;whiteSpace=wrap;rounded=0;fontStyle=1;fontSize=18;" vertex="1" parent="1">
          <mxGeometry x="1028" y="221" width="60" height="30" as="geometry" />
        </mxCell>
        <mxCell id="yE4ElQ9jsAfEs4iLxi3w-57" value="stride = 2" style="text;html=1;align=center;verticalAlign=middle;whiteSpace=wrap;rounded=0;fontSize=14;fontStyle=2" vertex="1" parent="1">
          <mxGeometry x="1028" y="241.75" width="60" height="30" as="geometry" />
        </mxCell>
        <mxCell id="yE4ElQ9jsAfEs4iLxi3w-58" style="edgeStyle=orthogonalEdgeStyle;rounded=0;orthogonalLoop=1;jettySize=auto;html=1;exitX=0.5;exitY=0;exitDx=0;exitDy=0;exitPerimeter=0;entryX=0.5;entryY=1;entryDx=0;entryDy=0;endArrow=none;endFill=0;" edge="1" parent="1" source="yE4ElQ9jsAfEs4iLxi3w-59" target="yE4ElQ9jsAfEs4iLxi3w-57">
          <mxGeometry relative="1" as="geometry" />
        </mxCell>
        <mxCell id="yE4ElQ9jsAfEs4iLxi3w-59" value="" style="strokeWidth=2;html=1;shape=mxgraph.flowchart.start_2;whiteSpace=wrap;fillColor=#000000;" vertex="1" parent="1">
          <mxGeometry x="1048" y="435.63" width="20" height="20" as="geometry" />
        </mxCell>
        <mxCell id="yE4ElQ9jsAfEs4iLxi3w-61" style="edgeStyle=orthogonalEdgeStyle;rounded=0;orthogonalLoop=1;jettySize=auto;html=1;entryX=0;entryY=0;entryDx=0;entryDy=49.81;entryPerimeter=0;" edge="1" parent="1">
          <mxGeometry relative="1" as="geometry">
            <mxPoint x="1086" y="446" as="targetPoint" />
            <mxPoint x="1059" y="445.6190476190476" as="sourcePoint" />
          </mxGeometry>
        </mxCell>
        <mxCell id="yE4ElQ9jsAfEs4iLxi3w-63" value="" style="endArrow=classic;html=1;rounded=0;exitX=0;exitY=0;exitDx=100;exitDy=36;exitPerimeter=0;entryX=0;entryY=0.5;entryDx=0;entryDy=0;entryPerimeter=0;" edge="1" parent="1" target="yE4ElQ9jsAfEs4iLxi3w-59">
          <mxGeometry width="50" height="50" relative="1" as="geometry">
            <mxPoint x="1028" y="445.4999999999999" as="sourcePoint" />
            <mxPoint x="855" y="410" as="targetPoint" />
          </mxGeometry>
        </mxCell>
      </root>
    </mxGraphModel>
  </diagram>
</mxfile>
